<?xml version="1.0" encoding="iso-8859-1"?><!-- GENERATOR : SymTaZ 8.1.1.0 10.10.2022 de Formation_aktiv Armeeplanungsmodul_Kat4universal_Personenwagen O4491_PW_5_9PL_4X24_MIL_SICH  vollEinsetzbar 0 0              0 1 frei frei   auto 0 END TAG --><!DOCTYPE svg PUBLIC "-//W3C//DTD SVG 1.1//EN" "http://www.w3.org/Graphics/SVG/1.1/DTD/svg11.dtd"[<!ENTITY ns_flows "http://ns.adobe.com/Flows/1.0/"><!ENTITY ns_extend "http://ns.adobe.com/Extensibility/1.0/"><!ENTITY ns_ai "http://ns.adobe.com/AdobeIllustrator/10.0/"><!ENTITY ns_graphs "http://ns.adobe.com/Graphs/1.0/">]><svg version="1.1" xmlns:x="&ns_extend;" xmlns:i="&ns_ai;" xmlns:graph="&ns_graphs;" xmlns="http://www.w3.org/2000/svg" xmlns:xlink="http://www.w3.org/1999/xlink" xmlns:a="http://ns.adobe.com/AdobeSVGViewerExtensions/3.0/" x="0px" y="0px" enable-background="new 0 0 170.079 113.385" xml:space="preserve" viewBox="51.0392 93.6361 190.0138 87.6244" preserveAspectRatio="xMinYMin meet" style="overflow:visible;enabled-background:new 0 0 430 195;" width="190.0138" height="87.6244">
  <style type="text/css"><![CDATA[
.fnt0 {font-weight:bold;font-size:27.5px;font-family:'Arial';font-stretch:narrower;fill:#3C3C3B}
]]></style>
<g id="boundingGroup">
<g transform="scale(1.71980420690568) translate(0,0)">

<g id="O4491_PW_5_9PL_4X24_MIL_SICH" xmlns="http://www.w3.org/2000/svg">
    <path fill="none" d="M139.303,81.931h0.019c-0.006-0.002-0.013-0.005-0.019-0.008V81.931z" />
    <path fill="#0A0A0A" d="M55.523,95.752c0.011-0.029,0.039-0.049,0.07-0.049h0.03c-0.066-0.016-0.068-0.037-0.068-0.067c-0.443-4.195-2.387-7.296-4.821-9.169c-0.027,0.036-0.065,0.063-0.114,0.063c-0.083,0-0.15-0.067-0.15-0.15v-0.119c-1.519-1.098-3.209-1.727-4.84-1.851c-0.227-0.018-0.456-0.026-0.681-0.026c-3.789,0-6,2.474-6.021,2.499c-0.002,0.002-0.005,0.001-0.007,0.003c-0.001,0.001,0,0.002-0.001,0.003c-2.823,2.399-1.897,8.813-1.816,9.332l0.48,0.301c-0.006-0.14-0.02-0.276-0.02-0.417c0-5.122,3.877-9.29,8.644-9.29c4.766,0,8.643,4.168,8.643,9.29c0,0.207-0.017,0.409-0.029,0.613l1.674-0.029l-0.952-0.854C55.52,95.814,55.512,95.781,55.523,95.752z" />
    <path fill="#0A0A0A" d="M37.65,97.408l0.008-0.003c-0.002-0.019-0.005-0.036-0.008-0.055V97.408z" />
    <path fill="#0A0A0A" d="M125.737,89.332c-0.004,0-0.007,0.002-0.011,0.002c-0.061,0-0.118-0.038-0.141-0.099c-0.01-0.027-0.003-0.054,0.003-0.08c-2.643-3.16-6.06-3.333-6.101-3.334c-0.332-0.029-0.658-0.045-0.973-0.045c-8.064,0-8.987,9.706-8.995,9.805c-0.003,0.025-0.028,0.033-0.049,0.045l0.074,0.973l0.399-0.513c0.01-5.113,3.883-9.271,8.643-9.271c4.766,0,8.643,4.168,8.643,9.29c0,0.194-0.016,0.384-0.027,0.575l0.577,0.88c-0.032-0.737-0.232-4.804-0.835-6.353C126.579,90.488,126.167,89.873,125.737,89.332z" />
    <path fill="#706F6F" d="M139.155,82.007l-0.051-1.742c-0.001-0.04,0.029-0.073,0.069-0.077l0.434-0.034c0.028-0.242,0.054-0.746-0.085-0.932c-0.16-0.218-0.347-0.624-0.425-0.799c-0.107,0.066-0.264,0.112-0.405,0.14c-0.069,0.02-0.138,0.032-0.201,0.035c-0.002,0-0.007,0.001-0.009,0.001c-0.004,0.001-0.007,0.001-0.01,0.001h-1.212c-0.152,0-0.274-0.052-0.363-0.152c-0.08-0.091-0.113-0.206-0.132-0.315c-0.013-0.032-0.034-0.063-0.034-0.096v-9.121c0-0.004,0.005-0.104,0.019-0.24V68.64c0-0.847,0.354-1.541,0.766-2.075c0.227-0.329,0.527-0.639,0.904-0.914c0.189-0.148,0.316-0.23,0.348-0.249c0.003-0.002,0.006-0.005,0.009-0.007c0.036-0.142,0.019-0.931-0.021-1.666l-0.541-0.059h-0.317c-0.135,0-0.245-0.11-0.245-0.245v-1.654c0-0.007,0.007-0.01,0.007-0.017l-0.004-0.078h-3.258c0.138,5.36,0.268,12.263,0.276,12.723v8.227c1.355-0.175,3.567-0.468,4.486-0.614C139.158,82.009,139.155,82.009,139.155,82.007z" />
    <path fill="#706F6F" d="M51.59,66.719c0.49-0.481,0.952-0.938,1.365-1.37c2.023-2.132,9.685-7.215,11.69-8.061c1.9-0.799,6.121-1.087,9.327-1.189c2.967-0.107,3.306,2.464,3.309,2.49c0.002,0.014,0.001,0.028-0.002,0.042c0.035,0.519,0.804,12.776-4.314,13.931c-5.229,1.178-17.034,3.445-19.563,3.084c-0.169,0.09,6.071,9.703,12.817,9.703h9.969c0-0.141,0.011-3.451,0.948-5.063c0.816-1.405,0.99-3.81,0.992-3.834c0-0.186,0.083-19.575,0-20.735c-0.029-0.408-0.138-0.705-0.314-0.857c-0.141-0.123-0.279-0.112-0.282-0.112c-0.062,0.003-0.104-0.03-0.131-0.074h-2.16c-0.086,0-8.708,0.114-12.359,2.167c-0.061,0.038-6.393,4.016-11.76,8.595c0.003,0.019,0.013,0.036,0.008,0.056c-0.003,0.012-0.251,0.979-0.333,2.015C51.058,67.244,51.324,66.981,51.59,66.719z" />
    <path fill="#706F6F" d="M132.667,81.451c0,0-0.337,2.357-1.771,2.9c-1.434,0.545-3.12,2.088-6.831,0.545c-3.71-1.541-7.252-1.359-9.95,0.182c-1.309,0.747-3.329,1.152-5.065,1.373c-0.246,1.721-0.687,4.832-0.687,5.611c0,0.054-0.033,0.093-0.075,0.119v3.322c0.568-0.003,0.943-0.004,1.09-0.005c0.098-0.88,1.299-9.872,9.138-9.872c0.319,0,0.649,0.015,0.982,0.045c0.038,0.001,3.504,0.173,6.188,3.366c0.174-0.063,6.192-2.296,7.429-2.828c1.166-0.501,1.257-3.463,1.257-3.493v-6.179h-1.705V81.451z" />
    <path fill="#706F6F" d="M109.597,81.486c-0.002,0.026-0.236,2.741-0.391,3.863h0.438c0,0,2.952-0.182,4.976-2.176c2.024-1.996,4.47-1.543,5.397-1.361c0.927,0.182,6.746,3.266,9.612,1.996c2.867-1.27,2.53-2.086,2.53-3.99c0-1.655,0.01-2.965,0.012-3.28h-22.545v4.255C109.627,80.989,109.614,81.299,109.597,81.486z" />
    <path fill="#706F6F" d="M74.756,69.585c0.258-0.276,0.465-0.61,0.548-1.014c0.324-1.576,1.271-6.391,1.725-8.701c-0.476,2.354-1.499,7.385-1.81,8.734C75.126,69.007,74.956,69.321,74.756,69.585z" />
    <path fill="#706F6F" d="M137.726,61.526l0.566-0.05c-0.029-0.437-0.198-2.742-0.648-4.145c-0.507-1.583-1.064-2.623-3.853-2.652c0.158,0.14,0.304,0.362,0.372,0.727c0.063,0.337,0.147,2.942,0.229,6.12H137.726L137.726,61.526z" />
    <rect x="109.627" y="74.477" fill="#706F6F" width="24.744" height="1.002" />
    <path fill="#706F6F" d="M108.907,85.329c0.153-1.103,0.39-3.842,0.392-3.869c0.016-0.18,0.028-0.479,0.028-0.667v-7.61h-20.51c-2.871,0-4.47-1.438-5.425-2.299c-0.15-0.135-0.28-0.252-0.399-0.35c-0.89-0.729-1.795-2.665-1.833-2.747c-0.005-0.01-0.007-0.021-0.007-0.031v-9.148c0-1.504,1.333-1.621,1.742-1.621c0.096,0,0.153,0.006,0.153,0.006c-0.004,0,13.662-0.002,26.279-0.004v-1.214c0-0.104-0.085-0.19-0.189-0.19H80.135c-0.105,0-0.191,0.085-0.191,0.19v22.525c0,0.185,0.01,0.485,0.021,0.67L80.345,85c0.006,0.097,0.011,0.223,0.015,0.35h28.544C108.905,85.343,108.906,85.334,108.907,85.329z" />
    <path fill="#706F6F" d="M40.362,85.559c1.051-0.654,2.596-1.325,4.585-1.325c0.229,0,0.461,0.009,0.692,0.026c1.625,0.124,3.309,0.745,4.829,1.821V74.811c-1.021-1.292-1.939-2.542-2.092-3.028c-0.019,0.006-0.032,0.022-0.054,0.02c-0.047-0.006-0.089-0.034-0.113-0.076c-0.484-0.878,0.746-2.349,2.268-3.898c0.033-0.843,0.193-1.679,0.29-2.111c-2.44,1.938-5.203,3.539-7.633,4.41c-1.502,0.539-4.398,1.862-6.366,2.997c1.367-0.661,2.858-1.219,3.901-1.579c0.208-0.075,0.403-0.143,0.581-0.197c0.456-0.15,0.743-0.237,0.755-0.241c0.061-0.017,0.126,0.005,0.163,0.054c0.038,0.051,0.04,0.119,0.005,0.172c-0.017,0.025-0.151,0.23-0.333,0.502c-0.184,0.298-0.427,0.654-0.673,0.986c-0.288,0.411-0.563,0.785-0.708,0.935c-0.22,0.227-1.076,0.909-1.904,1.569c-0.628,0.501-1.221,0.974-1.491,1.21c-0.56,0.491-0.576,0.595-0.668,1.171l-0.015,0.093c-0.101,0.608,0.443,1.625,0.449,1.635c0.022,0.041,0.024,0.09,0.005,0.133c-0.002,0.005-0.009,0.005-0.011,0.01C38.13,81.911,40.089,85.324,40.362,85.559z M44.142,76.746c0-0.229,0.187-0.415,0.415-0.415h0.798c0.229,0,0.415,0.187,0.415,0.415v0.125c0,0.229-0.187,0.417-0.415,0.417h-0.798c-0.229,0-0.415-0.188-0.415-0.417V76.746z" />
    <path fill="#706F6F" d="M55.698,95.571c0.16,0.012,0.723,0.024,2.098,0.034c0.012-0.06,0.78-3.618,7.073-3.618h11.319l0-5.276H66.134c0,0-3.831,0.523-12.736-8.344c0.001,0-1.332-1.556-2.629-3.179v11.118C53.248,88.191,55.234,91.324,55.698,95.571z" />
    <path fill="#706F6F" d="M40.242,85.636c-0.489-0.555-2.56-4.221-3.542-5.979l-4.454,1.037c-0.012,0.002-0.023,0.004-0.034,0.004c-0.042,0-0.077-0.022-0.105-0.053c-0.099,0.021-0.188,0.039-0.291,0.06c-0.055,0.287-0.339,1.684-0.831,2.535c0.026,0.053,0.051,0.141,0.089,0.278c0.049,0.177,0.121,0.426,0.226,0.7c0.591,1.42,1.432,1.944,2.271,2.162c0.153,0.039,0.302,0.081,0.474,0.099c0.013,0.002,0.026,0.006,0.04,0.008c0.002,0,0.006,0.001,0.008,0.001c0.613,0.059,1.184,0.104,1.707,0.14c1.328,0.075,2.835,0.121,3.041,0.127C38.951,86.637,39.445,86.151,40.242,85.636z" />
    <path fill="#706F6F" d="M108.741,86.488c-1.701,0.199-3.059,0.223-3.059,0.223H80.372c-0.005,0.125-0.009,0.248-0.01,0.342l-0.074,4.67c-0.001,0.072,0.001,0.17,0.004,0.265h27.773C108.085,91.107,108.486,88.269,108.741,86.488z" />
    <path fill="#706F6F" d="M138.825,90.106c0.134-0.031,0.35-0.128,0.381-0.457c0.047-0.501,0.269-6.712,0.298-7.547c-0.685,0.138-4.104,0.581-4.833,0.675c-0.019,0.44-0.178,3.167-1.437,3.708c-1.164,0.501-6.519,2.491-7.342,2.797c0.415,0.526,0.81,1.124,1.165,1.815C127.43,91.036,129.291,90.842,138.825,90.106z" />
    <path fill="#706F6F" d="M79.987,91.718l0.074-4.67c0.001-0.093,0.005-0.216,0.01-0.338h-3.584v5.276h3.504C79.989,91.891,79.986,91.793,79.987,91.718z" />
    <path fill="#706F6F" d="M80.045,85.019l-0.379-6.031c-0.012-0.19-0.021-0.499-0.021-0.689V55.773c0-0.27,0.22-0.49,0.491-0.49h29.002c0.271,0,0.49,0.22,0.49,0.49v1.214c10.181-0.001,19.602-0.002,20.496-0.002c0.706,0,1.243,0.187,1.597,0.554c0.448,0.465,0.433,1.046,0.432,1.071c0.005,0.052,0.59,6.174,0.59,7.249c0,1.088-0.816,2.68-0.852,2.747l-2.116,2.69c-1.183,1.502-2.514,1.868-2.569,1.883c-0.007,0.002-0.013,0.003-0.02,0.003h-17.558v1.145h24.743c-0.023-1.257-0.342-18.01-0.502-18.866c-0.143-0.767-0.656-0.721-0.679-0.714c-0.053,0.01-0.099-0.026-0.131-0.073H78.044c0.218,0.212,0.349,0.552,0.382,1.021c0.083,1.171,0.004,19.969,0,20.769c-0.007,0.11-0.181,2.508-1.032,3.973c-0.897,1.543-0.908,4.776-0.908,4.913h3.572C80.056,85.229,80.051,85.11,80.045,85.019z" />
    <path fill="#1D1D1B" d="M139.503,82.102c-0.029,0.835-0.251,7.046-0.298,7.547c-0.031,0.329-0.247,0.426-0.381,0.457c0.111-0.009,0.216-0.017,0.329-0.025c0.001,0,0.002,0.002,0.003,0.002c0.097-0.095,0.179-0.222,0.197-0.42c0.051-0.539,0.293-7.362,0.304-7.652c0-0.007-0.006-0.012-0.008-0.019c0.008,0.037-0.009,0.076-0.045,0.087C139.585,82.084,139.548,82.093,139.503,82.102z" />
    <path fill="#1D1D1B" d="M138.484,63.67h-0.271l0.541,0.059c0.04,0.735,0.058,1.524,0.021,1.666c-0.003,0.002-0.006,0.005-0.009,0.007c0.003-0.003,0.02-0.014,0.021-0.014c0.008-0.005,0.016-0.008,0.024-0.009c0.04-0.011,0.073-0.001,0.104,0.017c0.042-0.214,0.039-0.781-0.015-1.738c-0.002-0.037-0.03-0.066-0.067-0.07l-0.164-0.018C138.625,63.627,138.562,63.67,138.484,63.67z" />
    <path fill="#1D1D1B" d="M30.966,83.231c0.098,0.375,0.212,0.695,0.334,0.988c-0.104-0.274-0.176-0.523-0.226-0.7c-0.039-0.138-0.063-0.226-0.089-0.278c0.492-0.852,0.776-2.248,0.831-2.535c0.103-0.021,0.192-0.039,0.291-0.06c-0.013-0.014-0.028-0.026-0.036-0.046l-0.035-0.093c-0.099,0.021-0.205,0.042-0.299,0.062c-0.03,0.006-0.054,0.029-0.059,0.06c-0.003,0.018-0.307,1.681-0.849,2.582c0,0.001,0,0.002,0,0.004c0.015-0.026,0.042-0.049,0.073-0.039C30.932,83.178,30.958,83.201,30.966,83.231z" />
    <path fill="#1D1D1B" d="M139.636,81.956c-0.002-0.002-0.006-0.002-0.009-0.004c0.006,0.005,0.011,0.012,0.015,0.019C139.639,81.965,139.64,81.959,139.636,81.956z" />
    <path fill="#1D1D1B" d="M139.097,78.423c0.078,0.175,0.265,0.581,0.425,0.799c0.139,0.186,0.113,0.689,0.085,0.932l-0.434,0.034c-0.04,0.004-0.07,0.037-0.069,0.077l0.051,1.742c0,0.002,0.003,0.002,0.004,0.004c0.114-0.019,0.206-0.034,0.275-0.048H139.4c-0.03,0-0.051-0.022-0.078-0.032h-0.019v-0.008c-0.083-0.04-0.149-0.107-0.149-0.205v-1.203c0-0.135,0.11-0.245,0.246-0.245h0.165c0.03,0,0.051,0.022,0.077,0.032l0.037-0.003c0.035-0.003,0.063-0.03,0.068-0.064c0.012-0.083,0.109-0.814-0.104-1.103c-0.179-0.241-0.398-0.744-0.433-0.824c-0.007,0.014-0.011,0.027-0.019,0.04C139.174,78.376,139.134,78.4,139.097,78.423z" />
    <path fill="#1D1D1B" d="M57.811,95.668c-0.014-0.018-0.02-0.04-0.016-0.062l0-0.002c-1.375-0.01-1.938-0.022-2.098-0.034c-0.463-4.247-2.45-7.38-4.929-9.265v0.074c0,0.034-0.017,0.062-0.036,0.087c2.434,1.873,4.378,4.974,4.821,9.169c0,0.03,0.002,0.052,0.068,0.067l2.331-0.008h-0.085C57.846,95.696,57.825,95.686,57.811,95.668z" />
    <path fill="#1D1D1B" d="M125.674,89.042c0.001,0,0.011-0.004,0.012-0.005c-2.685-3.193-6.15-3.365-6.188-3.366c-0.333-0.03-0.663-0.045-0.982-0.045c-7.839,0-9.04,8.992-9.138,9.872c-0.146,0.001-0.521,0.002-1.09,0.005v0.024l1.105-0.004c0.039,0,0.071,0.03,0.075,0.069l0.003,0.032c0.021-0.012,0.046-0.02,0.049-0.045c0.008-0.099,0.931-9.805,8.995-9.805c0.314,0,0.641,0.016,0.973,0.045c0.041,0.001,3.458,0.174,6.101,3.334C125.598,89.106,125.624,89.061,125.674,89.042z" />
    <path fill="#1D1D1B" d="M126.951,91.136c0.001-0.002,0.005-0.002,0.006-0.004c0.002-0.002,0-0.006,0.002-0.008c0.003-0.004,0.008-0.008,0.036-0.015c0.005-0.002,0.008-0.008,0.013-0.008l0.045-0.004c0.002,0,0.003,0,0.005-0.001c-0.355-0.691-0.75-1.289-1.165-1.815c-0.064,0.023-0.109,0.04-0.114,0.042c-0.014,0.006-0.027,0.007-0.041,0.008c0.431,0.541,0.842,1.156,1.208,1.876c-0.001-0.002-0.001-0.004-0.002-0.005c0,0,0,0,0-0.001l0,0C126.935,91.18,126.938,91.156,126.951,91.136z" />
    <path fill="#1D1D1B" d="M41.251,71.347c-0.178,0.055-0.374,0.122-0.581,0.197C40.885,71.47,41.081,71.404,41.251,71.347z" />
    <path fill="#1D1D1B" d="M78,54.624c0.017,0.014,0.029,0.034,0.045,0.05h55.015c-0.013-0.02-0.031-0.037-0.034-0.061c-0.004-0.034,0.011-0.063,0.026-0.09H77.842C77.894,54.548,77.946,54.579,78,54.624z" />
    <path fill="#1D1D1B" d="M137.658,61.754c0.002-0.03,0.021-0.052,0.032-0.078h-0.036L137.658,61.754z" />
    <path fill="#1D1D1B" d="M51.122,65.435c5.367-4.579,11.699-8.557,11.76-8.595c3.651-2.052,12.273-2.166,12.359-2.167h2.16c-0.012-0.02-0.028-0.037-0.031-0.062c-0.003-0.033,0.011-0.062,0.027-0.088H75.24c-0.087,0.001-8.747,0.115-12.434,2.188c-0.064,0.04-6.4,4.021-11.773,8.603C51.086,65.333,51.115,65.38,51.122,65.435z" />
    <path fill="#1D1D1B" d="M41.168,72.82c0.246-0.332,0.49-0.688,0.673-0.986C41.651,72.118,41.409,72.477,41.168,72.82z" />
    <path fill="#1D1D1B" d="M35.799,86.628c-0.522-0.035-1.093-0.081-1.707-0.14C34.47,86.542,35.109,86.589,35.799,86.628z" />
    <path fill="#1D1D1B" d="M36.77,73.124c1.968-1.135,4.864-2.458,6.366-2.997c2.43-0.871,5.192-2.473,7.633-4.41c0.023-0.104,0.042-0.182,0.054-0.232c-2.462,1.98-5.274,3.618-7.738,4.502c-2.005,0.719-6.516,2.842-7.983,4.057C35.6,73.722,36.17,73.414,36.77,73.124z" />
    <path fill="#1D1D1B" d="M34.045,86.48c-0.172-0.018-0.321-0.06-0.474-0.099C33.73,86.423,33.888,86.457,34.045,86.48z" />
    <path fill="#1D1D1B" d="M133.792,54.679c2.788,0.03,3.346,1.069,3.853,2.652c0.45,1.402,0.619,3.708,0.648,4.145l-0.566,0.05c0.027,0.001,0.037,0.028,0.05,0.05c0.037-0.022,0.073-0.05,0.12-0.05h0.55c-0.01-0.158-0.17-2.717-0.659-4.24c-0.519-1.618-1.117-2.763-4.108-2.763h-0.132C133.627,54.557,133.71,54.606,133.792,54.679z" />
    <path fill="#1D1D1B" d="M138.491,78.598c0.063-0.003,0.132-0.016,0.201-0.035C138.609,78.58,138.536,78.592,138.491,78.598z" />
    <path fill="#1D1D1B" d="M136.731,78.037c0,0.032,0.021,0.063,0.034,0.096c-0.027-0.159-0.016-0.301-0.015-0.311l-0.001-9.146c-0.014,0.136-0.019,0.236-0.019,0.24V78.037z" />
    <path fill="#1D1D1B" d="M137.515,66.565c0.313-0.405,0.651-0.717,0.904-0.914C138.042,65.926,137.742,66.236,137.515,66.565z" />
    <path fill="#1D1D1B" d="M50.469,86.082c-1.52-1.076-3.203-1.697-4.829-1.821c-0.231-0.018-0.464-0.026-0.692-0.026c-1.99,0-3.535,0.671-4.585,1.325c0,0.001,0.002,0.003,0.002,0.003c0.021,0.004,0.041,0.016,0.053,0.035c0.021,0.035,0.011,0.081-0.024,0.103c-0.012,0.008-0.031,0.012-0.048,0.012c-0.007,0-0.014,0-0.02-0.002c-0.018-0.005-0.047-0.032-0.083-0.073c-0.797,0.515-1.291,1.001-1.402,1.119c0.014,0,0.03,0.001,0.032,0.001c0.031,0.001,0.059,0.021,0.069,0.05c0.01,0.029,0,0.06-0.021,0.08c0.002-0.002,0.005-0.001,0.007-0.003c0.021-0.025,2.232-2.499,6.021-2.499c0.225,0,0.454,0.009,0.681,0.026c1.631,0.124,3.322,0.753,4.84,1.851V86.082z" />
    <path fill="#3C3C3B" d="M52.135,74.292c0.129,0,0.262-0.013,0.394-0.038c2.479-0.469,20.238-3.836,20.238-3.836c0.083-0.01,1.775-0.218,2.159-1.881c0.396-1.718,1.952-9.436,2.053-9.936c-0.037-0.247-0.406-2.205-2.849-2.205c-0.049,0-0.099,0.001-0.149,0.002c-2.604,0.083-7.265,0.344-9.22,1.166c-1.987,0.838-9.583,5.877-11.589,7.991c-0.417,0.437-0.88,0.894-1.371,1.377c-0.334,0.329-0.684,0.676-1.027,1.024c-0.001,0.054-0.005,0.106-0.005,0.159v5.67C51.161,74.089,51.616,74.292,52.135,74.292C52.135,74.292,52.135,74.292,52.135,74.292z M54.45,67.231c-0.092-1.389,0.897-2.322,0.939-2.361c0.233-0.195,5.458-4.53,7.981-5.978c2.552-1.465,7.914-2.029,10.679-2.131l0.159-0.003c0.825,0,1.459,0.247,1.885,0.735c0.693,0.795,0.547,1.924,0.541,1.972c-0.054,0.308-1.275,7.291-1.697,8.651c-0.458,1.479-1.64,1.982-1.689,2.003c-0.206,0.043-14.419,2.561-16.089,2.833c-0.113,0.019-0.222,0.027-0.327,0.027h0c-1.687,0-2.342-2.145-2.37-2.236c-0.009-0.031-0.014-0.063-0.012-0.097C54.451,70.625,54.533,68.469,54.45,67.231z M51.217,70.566c0.082-1.925,0.826-3.61,1.593-3.61h1.181c0.04,0,0.073,0.031,0.075,0.071l0.338,6.166c0.002,0.04-0.028,0.075-0.068,0.078c0,0-0.078,0.008-0.209,0.008C53.444,73.279,51.217,73.083,51.217,70.566z" />
    <path fill="#3C3C3B" d="M48.737,71.008c0.029-0.03,0.069-0.048,0.11-0.048c0.011,0,0.021,0.002,0.032,0.004c0.052,0.012,0.094,0.05,0.11,0.1c0.007,0.021,0.509,1.512,1.479,2.459v-5.252c-1.15,1.193-2.143,2.386-2.063,3.094L48.737,71.008z" />
    <path fill="#1D1D1B" d="M51.629,74.402c1.266,0.064,18.046-3.109,18.046-3.109l3.207-0.615c0,0,1.146-0.31,1.874-1.092c0.199-0.265,0.37-0.578,0.462-0.98c0.311-1.35,1.334-6.381,1.81-8.734c0.151-0.771,0.248-1.264,0.248-1.264s0.001,0.014,0.001,0.024c0.003-0.014,0.004-0.028,0.002-0.042c-0.003-0.025-0.342-2.597-3.309-2.49c-3.206,0.102-7.427,0.39-9.327,1.189c-2.005,0.845-9.667,5.929-11.69,8.061c-0.413,0.433-0.875,0.889-1.365,1.37c-0.266,0.262-0.532,0.524-0.793,0.786c-0.012,0.151-0.02,0.302-0.023,0.452c0.343-0.349,0.692-0.695,1.027-1.024c0.491-0.483,0.955-0.94,1.371-1.377c2.006-2.114,9.602-7.153,11.589-7.991c1.956-0.822,6.616-1.083,9.22-1.166c0.051-0.001,0.1-0.002,0.149-0.002c2.443,0,2.812,1.958,2.849,2.205c-0.101,0.5-1.657,8.218-2.053,9.936c-0.384,1.663-2.076,1.871-2.159,1.881c0,0-17.759,3.367-20.238,3.836c-0.132,0.025-0.265,0.038-0.394,0.038c0,0,0,0,0,0c-0.519,0-0.974-0.203-1.366-0.506v0.168C51.055,74.211,51.348,74.387,51.629,74.402z" />
    <path fill="#1D1D1B" d="M48.21,71.726c0.023,0.042,0.065,0.07,0.113,0.076c0.022,0.003,0.035-0.014,0.054-0.02c-0.015-0.046-0.035-0.098-0.035-0.129c0.084-0.09,0.506-0.543,0.506-0.543s0.743,1.575,1.622,2.546v-0.134c-0.97-0.947-1.472-2.438-1.479-2.459c-0.017-0.05-0.059-0.088-0.11-0.1c-0.011-0.002-0.021-0.004-0.032-0.004c-0.041,0-0.081,0.018-0.11,0.048l-0.332,0.356c-0.08-0.708,0.913-1.9,2.063-3.094v-0.154c0-0.096,0.005-0.193,0.009-0.289C48.956,69.377,47.726,70.848,48.21,71.726z" />
    <path fill="#878787" d="M129.63,83.808c-2.866,1.27-8.686-1.814-9.612-1.996c-0.928-0.182-3.373-0.635-5.397,1.361c-2.023,1.994-4.976,2.176-4.976,2.176h-0.438c-0.001,0.007-0.002,0.015-0.003,0.021c-0.025,0.186-0.065,0.465-0.115,0.809c-0.013,0.085-0.025,0.178-0.039,0.272c1.736-0.221,3.757-0.626,5.065-1.373c2.698-1.541,6.24-1.723,9.95-0.182c3.711,1.543,5.397,0,6.831-0.545c1.434-0.543,1.771-2.9,1.771-2.9v-4.913h-0.494c-0.002,0.315-0.012,1.625-0.012,3.28C132.161,81.722,132.498,82.539,129.63,83.808z" />
    <path fill="#878787" d="M66.134,86.71h10.053v-1.361h-9.969c-6.746,0-12.986-9.613-12.817-9.703c2.529,0.361,14.335-1.906,19.563-3.084c5.118-1.154,4.349-13.412,4.314-13.931c0-0.011-0.001-0.024-0.001-0.024s-0.097,0.492-0.248,1.264c-0.454,2.311-1.401,7.125-1.725,8.701c-0.083,0.403-0.29,0.737-0.548,1.014c-0.728,0.782-1.874,1.092-1.874,1.092l-3.207,0.615c0,0-16.78,3.174-18.046,3.109c-0.281-0.015-0.574-0.19-0.861-0.447v1.233c1.298,1.623,2.631,3.179,2.629,3.179C62.303,87.234,66.134,86.71,66.134,86.71z" />
    <path fill="#878787" d="M80.088,86.361l-0.021-0.667c0-0.096-0.002-0.221-0.007-0.345h-3.572v1.361h3.584C80.076,86.583,80.082,86.458,80.088,86.361z" />
    <path fill="#878787" d="M108.741,86.488c0.018-0.123,0.035-0.24,0.051-0.353c0.048-0.333,0.087-0.602,0.112-0.786H80.36c0.004,0.123,0.006,0.247,0.006,0.34l0.021,0.677c-0.006,0.099-0.012,0.223-0.016,0.345h25.311C105.682,86.71,107.04,86.687,108.741,86.488z" />
    <path fill="#878787" d="M48.341,71.654c0,0.031,0.021,0.083,0.035,0.129c0.153,0.486,1.071,1.736,2.092,3.028v-1.154c-0.879-0.971-1.622-2.546-1.622-2.546S48.425,71.564,48.341,71.654z" />
    <path fill="#575756" d="M80.012,92.413c-0.007-0.075-0.012-0.176-0.016-0.275h-3.509v0.015l0.332,3.377l3.459-0.003L80.012,92.413z" />
    <path fill="#575756" d="M108.093,92.137H80.297c0.004,0.09,0.008,0.183,0.014,0.249l0.268,3.14l27.558-0.023v-3.321C108.118,92.169,108.105,92.157,108.093,92.137z" />
    <path fill="#575756" d="M57.966,95.545l18.552-0.016l-0.33-3.363v-0.029H64.869C59.249,92.137,58.128,95,57.966,95.545z" />
    <path fill="#1D1D1B" d="M108.288,92.181c-0.023,0.015-0.046,0.031-0.075,0.031s-0.052-0.017-0.075-0.031v3.321l-27.558,0.023l0.005,0.061c0.001,0.013-0.009,0.021-0.011,0.034l27.714-0.093v-0.024V92.181z" />
    <path fill="#1D1D1B" d="M80.278,95.526l-3.459,0.003l0.005,0.056c0.002,0.018-0.01,0.031-0.015,0.048l3.48-0.011c0-0.004-0.004-0.006-0.004-0.01L80.278,95.526z" />
    <path fill="#1D1D1B" d="M76.518,95.53l-18.552,0.016c0.162-0.546,1.283-3.408,6.903-3.408h11.319v-0.15H64.869c-6.293,0-7.062,3.559-7.073,3.618l0,0.002c-0.004,0.021,0.002,0.044,0.016,0.062s0.035,0.027,0.058,0.027h0.085l18.583-0.063c-0.002-0.007-0.009-0.012-0.01-0.02L76.518,95.53z" />
    <path fill="#1D1D1B" d="M108.062,92.062c0-0.021,0.002-0.051,0.002-0.075H80.291c0.001,0.055,0.003,0.097,0.006,0.15h27.796C108.079,92.114,108.062,92.091,108.062,92.062z" />
    <path fill="#1D1D1B" d="M79.991,91.987h-3.504v0.15h3.509C79.994,92.083,79.993,92.041,79.991,91.987z" />
    <path fill="#3C3C3B" d="M139.244,93.315c-0.021,0-0.041-0.009-0.055-0.024c-0.015-0.015-0.021-0.035-0.021-0.057l0.085-1.178c0.002-0.028,0.021-0.053,0.047-0.063c0.024-0.011,0.056-0.006,0.077,0.013c0.09,0.078,0.158,0.149,0.228,0.221c-0.005-0.011-0.01-0.024-0.015-0.035c-0.124-0.267-0.253-0.541-0.253-0.945c0-0.323-0.052-0.564-0.107-0.738c-0.027,0.312-0.142,0.747-0.564,0.813c-0.581,0.088-10.689,0.859-11.287,0.906c0.396,1.914,0.53,4.818,0.553,5.369l6.573-1.092l3.855-0.072l0.4-0.603c0.009-0.013,0.022-0.023,0.037-0.028l1.212-0.435c-0.014-0.283-0.081-1.564-0.151-2.252C139.664,93.298,139.294,93.315,139.244,93.315z" />
    <path fill="#1D1D1B" d="M139.97,92.864c0,0.043,0.005,0.089-0.01,0.128c-0.02,0.053-0.063,0.085-0.103,0.122c0.07,0.688,0.138,1.969,0.151,2.252l-1.212,0.435c-0.015,0.005-0.028,0.016-0.037,0.028l-0.4,0.603l-3.855,0.072l-6.573,1.092c-0.022-0.551-0.157-3.455-0.553-5.369c-0.005,0-0.015,0.001-0.019,0.001c-0.002,0-0.004,0-0.006,0c-0.031,0-0.061-0.021-0.07-0.051l-0.341-0.975c0,0.001,0,0.001,0,0.001c0.001,0.001,0.001,0.003,0.002,0.005c0.603,1.549,0.803,5.615,0.835,6.353c0.003,0.07,0.005,0.122,0.005,0.126c0.001,0.021,0.011,0.041,0.027,0.055c0.014,0.012,0.03,0.018,0.048,0.018c0.004,0,0.008-0.001,0.013-0.001l6.646-1.104l3.884-0.072c0.025-0.001,0.048-0.013,0.062-0.033l0.408-0.614l1.241-0.445c0.031-0.011,0.051-0.041,0.05-0.074c-0.001-0.017-0.085-1.735-0.17-2.454C139.989,92.923,139.976,92.898,139.97,92.864z" />
    <path fill="#1D1D1B" d="M138.825,90.106c-9.534,0.736-11.395,0.93-11.768,0.991c-0.002,0.001-0.003,0.001-0.005,0.001l12.102-0.977c0.039,0.001,0.077,0.027,0.081,0.068c0.001,0.015,0.011,0.148-0.005,0.317c0.056,0.174,0.107,0.415,0.107,0.738c0,0.404,0.129,0.679,0.253,0.945c0.005,0.011,0.01,0.024,0.015,0.035c0.16,0.164,0.265,0.311,0.32,0.441c-0.055-0.2-0.123-0.379-0.199-0.541c-0.122-0.262-0.238-0.51-0.238-0.881c0-0.741-0.256-1.117-0.267-1.133c-0.014-0.021-0.038-0.03-0.064-0.03c-0.001,0-0.002-0.002-0.003-0.002C139.041,90.089,138.936,90.097,138.825,90.106z" />
    <path fill="#1D1D1B" d="M126.958,91.125c-0.002,0.002,0,0.006-0.002,0.008c0.01-0.012,0.023-0.019,0.038-0.022C126.966,91.117,126.961,91.121,126.958,91.125z" />
    <path fill="#575756" d="M127.406,92.073c0.848-0.064,10.679-0.816,11.236-0.901c0.427-0.066,0.451-0.679,0.446-0.894l-11.973,0.967L127.406,92.073z" />
    <path fill="#1D1D1B" d="M138.666,91.32c0.423-0.065,0.537-0.501,0.564-0.813c0.016-0.169,0.006-0.303,0.005-0.317c-0.004-0.041-0.042-0.067-0.081-0.068l-12.102,0.977l-0.045,0.004c-0.005,0-0.008,0.006-0.013,0.008c-0.015,0.004-0.028,0.011-0.038,0.022c-0.001,0.002-0.005,0.002-0.006,0.004c-0.013,0.02-0.016,0.044-0.008,0.065l0,0l0.341,0.975c0.01,0.03,0.039,0.051,0.07,0.051c0.002,0,0.004,0,0.006,0c0.004,0,0.014-0.001,0.019-0.001C127.976,92.179,138.084,91.408,138.666,91.32z M127.116,91.245l11.973-0.967c0.005,0.215-0.02,0.827-0.446,0.894c-0.558,0.085-10.389,0.837-11.236,0.901L127.116,91.245z" />
    <path fill="#706F6F" d="M139.392,92.22l-0.067,0.94c0.166-0.013,0.438-0.066,0.495-0.222C139.854,92.847,139.838,92.637,139.392,92.22z" />
    <path fill="#1D1D1B" d="M139.605,92.226c-0.069-0.071-0.138-0.143-0.228-0.221c-0.021-0.019-0.053-0.023-0.077-0.013c-0.026,0.011-0.045,0.035-0.047,0.063l-0.085,1.178c-0.001,0.021,0.006,0.042,0.021,0.057c0.014,0.016,0.034,0.024,0.055,0.024c0.051,0,0.42-0.017,0.614-0.201c0.039-0.037,0.083-0.069,0.103-0.122c0.015-0.039,0.01-0.085,0.01-0.128c0-0.062-0.016-0.127-0.045-0.196C139.87,92.537,139.765,92.39,139.605,92.226z M139.325,93.161l0.067-0.94c0.446,0.417,0.462,0.627,0.428,0.719C139.762,93.094,139.491,93.148,139.325,93.161z" />
    <polygon fill="#3C3C3B" points="56.634,96.612 109.396,96.612 109.324,95.674 55.789,95.853 " />
    <path fill="#1D1D1B" d="M109.468,95.593c-0.004-0.039-0.036-0.069-0.075-0.069l-1.105,0.004l-27.714,0.093c-0.011,0.065-0.056,0.122-0.126,0.128c-0.004,0-0.009,0.001-0.013,0.001c-0.073,0-0.133-0.056-0.145-0.128l-3.48,0.011c-0.016,0.06-0.056,0.11-0.12,0.116c-0.005,0-0.01,0.001-0.015,0.001c-0.069,0-0.122-0.051-0.139-0.116l-18.583,0.063l-2.331,0.008h-0.03c-0.031,0-0.059,0.02-0.07,0.049c-0.011,0.028-0.003,0.062,0.02,0.082l0.952,0.854l0.06,0.054c0.014,0.013,0.032,0.02,0.05,0.02h52.872c0.021,0,0.041-0.009,0.055-0.024c0.015-0.016,0.021-0.036,0.021-0.057l-0.007-0.083l-0.074-0.973L109.468,95.593z M109.324,95.674l0.072,0.938H56.634l-0.845-0.759L109.324,95.674z" />
    <rect x="109.627" y="75.629" fill="#3C3C3B" width="24.744" height="0.758" />
    <rect x="109.627" y="75.479" fill="#1D1D1B" width="24.744" height="0.15" />
    <polygon fill="#1D1D1B" points="109.627,76.538 132.172,76.538 132.667,76.538 134.372,76.538 134.372,76.387 109.627,76.387 " />
    <path fill="#706F6F" d="M139.565,80.42H139.4c-0.053,0-0.096,0.042-0.096,0.095v1.203c0,0.052,0.044,0.095,0.096,0.095h0.165c0.052,0,0.095-0.043,0.095-0.095v-1.203C139.66,80.462,139.618,80.42,139.565,80.42z" />
    <path fill="#1D1D1B" d="M139.4,80.27c-0.136,0-0.246,0.11-0.246,0.245v1.203c0,0.098,0.066,0.165,0.149,0.205c0.006,0.003,0.013,0.006,0.019,0.008c0.027,0.01,0.048,0.032,0.078,0.032h0.034c0.058-0.011,0.104-0.021,0.126-0.027c0.021-0.009,0.041-0.005,0.059,0.005c0.105-0.027,0.191-0.109,0.191-0.223v-1.203c0-0.104-0.075-0.178-0.168-0.213c-0.026-0.01-0.047-0.032-0.077-0.032H139.4z M139.66,81.718c0,0.052-0.043,0.095-0.095,0.095H139.4c-0.052,0-0.096-0.043-0.096-0.095v-1.203c0-0.053,0.043-0.095,0.096-0.095h0.165c0.053,0,0.095,0.042,0.095,0.095V81.718z" />
    <path fill="#1D1D1B" d="M77.37,54.611c0.002,0.025,0.019,0.042,0.031,0.062c0.027,0.044,0.069,0.078,0.131,0.074c0.003,0,0.141-0.011,0.282,0.112c0.176,0.152,0.285,0.449,0.314,0.857c0.083,1.16,0,20.55,0,20.735c-0.002,0.024-0.176,2.429-0.992,3.834c-0.937,1.612-0.948,4.923-0.948,5.063v1.361l0,5.276v0.15v0.029l0.33,3.363l0.008,0.084c0.001,0.008,0.008,0.013,0.01,0.02c0.017,0.065,0.07,0.116,0.139,0.116c0.005,0,0.01-0.001,0.015-0.001c0.064-0.006,0.104-0.057,0.12-0.116c0.004-0.017,0.017-0.03,0.015-0.048l-0.005-0.056l-0.332-3.377v-0.015v-0.15V86.71v-1.361c0-0.137,0.01-3.37,0.908-4.913c0.851-1.465,1.024-3.862,1.032-3.973c0.003-0.8,0.083-19.597,0-20.769c-0.033-0.47-0.164-0.809-0.382-1.021c-0.016-0.016-0.028-0.036-0.045-0.05c-0.053-0.044-0.106-0.075-0.157-0.101c-0.174-0.086-0.321-0.078-0.34-0.074c-0.048,0.005-0.083,0.035-0.105,0.074C77.381,54.549,77.367,54.578,77.37,54.611z" />
    <path fill="#1D1D1B" d="M108.363,92.062c0-0.779,0.44-3.891,0.687-5.611c0.014-0.095,0.026-0.188,0.039-0.272c0.05-0.344,0.09-0.623,0.115-0.809c0.001-0.006,0.002-0.014,0.003-0.021c0.154-1.122,0.389-3.837,0.391-3.863c0.017-0.187,0.03-0.497,0.03-0.693v-4.255v-0.15v-0.758v-0.15v-1.002h-0.15c-0.041,0-0.075-0.034-0.075-0.075s0.034-0.075,0.075-0.075h0.15v-1.145h-0.301v7.61c0,0.188-0.013,0.487-0.028,0.667c-0.002,0.027-0.238,2.767-0.392,3.869c-0.001,0.006-0.002,0.015-0.003,0.021c-0.025,0.185-0.064,0.453-0.112,0.786c-0.016,0.112-0.033,0.229-0.051,0.353c-0.255,1.781-0.655,4.619-0.677,5.499c0,0.024-0.002,0.054-0.002,0.075c0,0.029,0.017,0.052,0.031,0.075c0.012,0.02,0.024,0.032,0.044,0.044c0.023,0.015,0.046,0.031,0.075,0.031s0.052-0.017,0.075-0.031C108.33,92.155,108.363,92.116,108.363,92.062z" />
    <path fill="#1D1D1B" d="M80.584,95.586l-0.005-0.061l-0.268-3.14c-0.006-0.066-0.01-0.159-0.014-0.249c-0.002-0.054-0.004-0.096-0.006-0.15c-0.002-0.095-0.005-0.192-0.004-0.265l0.074-4.67c0.001-0.094,0.005-0.217,0.01-0.342c0.004-0.122,0.01-0.246,0.016-0.345l-0.021-0.677c0-0.093-0.002-0.217-0.006-0.34c-0.004-0.127-0.009-0.253-0.015-0.35l-0.379-6.031c-0.012-0.185-0.021-0.485-0.021-0.67V55.773c0-0.104,0.086-0.19,0.191-0.19h29.002c0.104,0,0.189,0.085,0.189,0.19v1.214c0.101,0,0.2,0,0.301,0v-1.214c0-0.27-0.22-0.49-0.49-0.49H80.135c-0.271,0-0.491,0.22-0.491,0.49v22.525c0,0.19,0.01,0.499,0.021,0.689l0.379,6.031c0.006,0.091,0.011,0.21,0.015,0.33c0.004,0.124,0.007,0.249,0.007,0.345l0.021,0.667c-0.006,0.097-0.012,0.223-0.017,0.35c-0.005,0.122-0.008,0.245-0.01,0.338l-0.074,4.67c-0.001,0.075,0.001,0.173,0.004,0.269c0.001,0.054,0.003,0.097,0.005,0.15c0.004,0.1,0.009,0.2,0.016,0.275l0.266,3.113l0.007,0.086c0,0.004,0.004,0.006,0.004,0.01c0.012,0.072,0.072,0.128,0.145,0.128c0.004,0,0.008-0.001,0.013-0.001c0.07-0.006,0.115-0.063,0.126-0.128C80.576,95.608,80.585,95.599,80.584,95.586z" />
    <path fill="#1D1D1B" d="M109.477,74.327c-0.041,0-0.075,0.034-0.075,0.075s0.034,0.075,0.075,0.075h0.15h24.744v-0.075c0-0.006-0.001-0.033-0.001-0.075h-24.743H109.477z" />
    <path fill="#1D1D1B" d="M133.025,54.613c0.003,0.024,0.021,0.041,0.034,0.061c0.032,0.047,0.078,0.083,0.131,0.073c0.022-0.006,0.536-0.052,0.679,0.714c0.16,0.855,0.479,17.609,0.502,18.866c0,0.042,0.001,0.069,0.001,0.075v0.075v1.002v0.15v0.758v0.15v6.179c0,0.03-0.091,2.992-1.257,3.493c-1.236,0.532-7.255,2.765-7.429,2.828c-0.001,0.001-0.011,0.005-0.012,0.005c-0.051,0.019-0.076,0.063-0.086,0.112c-0.006,0.026-0.013,0.053-0.003,0.08c0.022,0.061,0.08,0.099,0.141,0.099c0.004,0,0.007-0.002,0.011-0.002c0.014-0.001,0.027-0.002,0.041-0.008c0.005-0.002,0.05-0.019,0.114-0.042c0.823-0.306,6.178-2.296,7.342-2.797c1.259-0.541,1.418-3.268,1.437-3.708c-0.069,0.009-0.123,0.016-0.139,0.018c-0.004,0.001-0.007,0.001-0.01,0.001c-0.037,0-0.069-0.027-0.074-0.065c-0.006-0.041,0.023-0.079,0.064-0.084c0.051-0.007,0.106-0.014,0.16-0.021v-8.227c-0.009-0.46-0.139-7.362-0.276-12.723h-0.152c-0.041,0-0.075-0.034-0.075-0.075s0.034-0.075,0.075-0.075h0.148c-0.081-3.178-0.166-5.782-0.229-6.12c-0.068-0.365-0.214-0.587-0.372-0.727c-0.081-0.073-0.164-0.123-0.245-0.156c-0.206-0.086-0.383-0.074-0.388-0.075c-0.049,0.005-0.083,0.036-0.107,0.075C133.036,54.55,133.021,54.579,133.025,54.613z" />
    <path fill="#1D1D1B" d="M139.56,81.936c-0.022,0.007-0.068,0.017-0.126,0.027c-0.069,0.014-0.161,0.029-0.275,0.048c-0.919,0.146-3.131,0.439-4.486,0.614c-0.054,0.007-0.109,0.014-0.16,0.021c-0.041,0.005-0.07,0.043-0.064,0.084c0.005,0.038,0.037,0.065,0.074,0.065c0.003,0,0.006,0,0.01-0.001c0.016-0.002,0.069-0.009,0.139-0.018c0.729-0.094,4.148-0.537,4.833-0.675c0.045-0.009,0.082-0.018,0.102-0.023c0.036-0.011,0.053-0.05,0.045-0.087c0-0.003,0.005-0.004,0.004-0.007c-0.002-0.007-0.009-0.01-0.012-0.015c-0.004-0.007-0.009-0.014-0.015-0.019c-0.003-0.003-0.005-0.009-0.009-0.011C139.601,81.931,139.581,81.927,139.56,81.936z" />
    <path fill="#1D1D1B" d="M137.69,61.676c0.021-0.044,0.045-0.075,0.086-0.101c-0.013-0.021-0.022-0.049-0.05-0.05l0,0h-3.334h-0.148c-0.041,0-0.075,0.034-0.075,0.075s0.034,0.075,0.075,0.075h0.152h3.258H137.69z" />
    <path fill="#1D1D1B" d="M50.768,65.716c-0.097,0.433-0.257,1.269-0.29,2.111c-0.004,0.096-0.009,0.193-0.009,0.289v0.154v5.252v0.134v1.154v11.271v0.18v0.119c0,0.083,0.067,0.15,0.15,0.15c0.049,0,0.087-0.027,0.114-0.063c0.019-0.025,0.036-0.053,0.036-0.087v-0.074V75.188v-1.233v-0.168v-5.67c0-0.053,0.004-0.105,0.005-0.159c0.003-0.15,0.011-0.301,0.023-0.452c0.082-1.035,0.33-2.003,0.333-2.015c0.005-0.02-0.005-0.037-0.008-0.056c-0.007-0.055-0.036-0.102-0.09-0.121c-0.004-0.001-0.005-0.006-0.009-0.007c-0.082-0.021-0.163,0.027-0.183,0.107c-0.001,0.006-0.009,0.034-0.018,0.069C50.81,65.535,50.792,65.613,50.768,65.716z" />
    <path fill="#1D1D1B" d="M40.242,85.636c0.037,0.041,0.066,0.068,0.083,0.073c0.006,0.002,0.013,0.002,0.02,0.002c0.017,0,0.036-0.004,0.048-0.012c0.035-0.021,0.046-0.067,0.024-0.103c-0.012-0.02-0.031-0.031-0.052-0.035c0,0-0.002-0.002-0.002-0.003c-0.273-0.235-2.232-3.648-3.538-5.984c-0.021,0.035-0.051,0.065-0.091,0.075l-0.034,0.008C37.682,81.416,39.752,85.082,40.242,85.636z" />
    <path fill="#3C3C3B" d="M33.784,92.834c1.74-0.038,2.723-0.009,2.97,0c0.049-2.067,0.451-4.552,1.925-5.934c-0.761-0.023-3.616-0.12-4.616-0.265c-1.184-0.173-2.482-0.689-3.189-3.171c-0.154,0.342-0.458,1.095-0.428,1.647c0.038,0.691-0.073,1.805-0.377,2.096c-0.157,0.15-0.469,0.752,0.021,3.088c0.4,1.905,0.687,2.188,0.715,2.211C30.865,92.531,31.84,92.883,33.784,92.834z" />
    <path fill="#3C3C3B" d="M36.946,96.193c-0.05-0.342-0.22-1.643-0.195-3.209c-0.242-0.01-1.223-0.038-2.964,0.001c-0.115,0.002-0.228,0.004-0.336,0.004c-1.545,0-2.399-0.241-2.638-0.319c-0.056,0.158-0.21,0.571-0.323,0.693c-0.19,0.205-0.382,0.524-0.217,0.881c0.197,0.422,1.076,1.246,2.31,1.329c0.003,0.001,0.003,0.004,0.006,0.005c0.002,0,0.002-0.003,0.004-0.003C32.624,95.581,35.665,96.187,36.946,96.193z" />
    <path fill="#3C3C3B" d="M32.691,95.747c0.05,0.199,0.179,0.602,0.861,0.762c0.854,0.2,3.432,0.728,3.947,0.833v-0.694l-0.487-0.305c-0.016,0-0.032,0-0.048,0C35.809,96.342,33.284,95.863,32.691,95.747z" />
    <path fill="#1D1D1B" d="M37.583,96.522l-0.48-0.301c-0.081-0.52-1.007-6.933,1.816-9.332c0.001-0.001,0-0.002,0.001-0.003c0.021-0.021,0.031-0.051,0.021-0.08c-0.01-0.028-0.038-0.049-0.069-0.05c-0.001,0-0.018-0.001-0.032-0.001c-0.206-0.006-1.713-0.052-3.041-0.127c-0.69-0.039-1.329-0.086-1.707-0.14c-0.002,0-0.006-0.001-0.008-0.001c-0.013-0.002-0.026-0.006-0.04-0.008c-0.157-0.023-0.315-0.057-0.474-0.099c-0.838-0.218-1.68-0.742-2.271-2.162c-0.122-0.293-0.236-0.613-0.334-0.988c-0.008-0.03-0.034-0.053-0.064-0.056c-0.03-0.01-0.058,0.013-0.073,0.039c0,0.001-0.002,0-0.002,0.001c-0.023,0.046-0.572,1.133-0.529,1.905c0.043,0.813-0.118,1.774-0.332,1.979c-0.218,0.208-0.51,0.904-0.021,3.228c0.35,1.667,0.626,2.138,0.737,2.266c-0.082,0.231-0.224,0.584-0.302,0.668c-0.313,0.337-0.399,0.709-0.242,1.045c0.208,0.447,1.125,1.315,2.393,1.412c0.002,0.01,0.005,0.021,0.008,0.032c0.047,0.195,0.174,0.715,0.981,0.904c0.948,0.222,4.01,0.846,4.041,0.852c0.005,0.001,0.01,0.002,0.015,0.002c0.017,0,0.034-0.006,0.047-0.018c0.018-0.014,0.028-0.035,0.028-0.058v-0.025V97.35C37.616,97.078,37.594,96.801,37.583,96.522z M32.504,95.633c0.008-0.039,0.049-0.06,0.084-0.056c-0.002-0.001-0.003-0.004-0.006-0.005c-1.234-0.083-2.113-0.907-2.31-1.329c-0.166-0.356,0.026-0.676,0.217-0.881c0.113-0.122,0.267-0.535,0.323-0.693c-0.04-0.014-0.067-0.023-0.073-0.025c-0.039-0.016-0.058-0.059-0.042-0.098c0.014-0.038,0.059-0.056,0.097-0.043c0,0,0.009,0.003,0.011,0.004c-0.028-0.023-0.314-0.306-0.715-2.211c-0.491-2.336-0.178-2.938-0.021-3.088c0.304-0.291,0.415-1.404,0.377-2.096c-0.03-0.553,0.274-1.306,0.428-1.647c0.707,2.481,2.005,2.998,3.189,3.171c1,0.145,3.855,0.241,4.616,0.265c-1.475,1.382-1.876,3.866-1.925,5.934c0.04,0.001,0.065,0.002,0.066,0.002c0.042,0.002,0.073,0.037,0.071,0.079c-0.001,0.04-0.035,0.071-0.075,0.071c-0.001,0-0.002,0-0.003,0c-0.001,0-0.024-0.001-0.063-0.003c-0.025,1.566,0.145,2.867,0.195,3.209c0.006,0,0.013,0,0.019,0c0.023,0,0.049,0.002,0.069-0.001c0.041,0,0.074,0.033,0.075,0.074c0,0.041-0.032,0.075-0.074,0.076c-0.007,0-0.015,0-0.022,0l0.487,0.305v0.694c-0.515-0.105-3.093-0.633-3.947-0.833c-0.683-0.16-0.811-0.563-0.861-0.762c-0.066-0.013-0.115-0.022-0.128-0.025C32.522,95.713,32.496,95.674,32.504,95.633z" />
    <path fill="#1D1D1B" d="M33.787,92.985c1.741-0.039,2.722-0.011,2.964-0.001c0.038,0.002,0.061,0.003,0.063,0.003c0.001,0,0.002,0,0.003,0c0.04,0,0.073-0.031,0.075-0.071c0.002-0.042-0.03-0.077-0.071-0.079c-0.001,0-0.026-0.001-0.066-0.002c-0.247-0.009-1.229-0.038-2.97,0c-1.944,0.049-2.919-0.304-2.979-0.327c-0.002-0.001-0.011-0.004-0.011-0.004c-0.039-0.013-0.083,0.005-0.097,0.043c-0.015,0.039,0.004,0.082,0.042,0.098c0.005,0.002,0.033,0.012,0.073,0.025c0.239,0.078,1.093,0.319,2.638,0.319C33.559,92.989,33.672,92.987,33.787,92.985z" />
    <path fill="#1D1D1B" d="M32.691,95.747c0.592,0.116,3.117,0.596,4.273,0.596c0.017,0,0.032,0,0.048,0c0.007,0,0.015,0,0.022,0c0.042-0.001,0.074-0.035,0.074-0.076c-0.001-0.041-0.034-0.074-0.075-0.074c-0.02,0.003-0.045,0.001-0.069,0.001c-0.006,0-0.013,0-0.019,0c-1.282-0.006-4.322-0.612-4.354-0.618c-0.001,0-0.002,0.003-0.004,0.003c-0.036-0.004-0.076,0.017-0.084,0.056c-0.008,0.041,0.019,0.08,0.059,0.088C32.576,95.724,32.625,95.734,32.691,95.747z" />
    <path fill="#C6C6C6" d="M32.306,80.373l4.173-0.972c-0.163-0.341-0.484-1.105-0.394-1.652l0.015-0.092c0.103-0.636,0.15-0.807,0.767-1.348c0.275-0.242,0.871-0.717,1.502-1.22c0.783-0.624,1.669-1.331,1.876-1.544c0.268-0.275,1.05-1.434,1.445-2.026c-1.202,0.387-4.808,1.611-6.773,3.005c-2.446,1.732-2.67,2.771-2.689,3.609c-0.019,0.848-0.003,1.857,0,2.029L32.306,80.373z" />
    <path fill="#1D1D1B" d="M32.071,80.6c0.007,0.02,0.022,0.032,0.036,0.046c0.028,0.03,0.063,0.053,0.105,0.053c0.011,0,0.022-0.002,0.034-0.004l4.454-1.037l0.034-0.008c0.041-0.01,0.071-0.04,0.091-0.075c0.002-0.005,0.009-0.005,0.011-0.01c0.019-0.043,0.018-0.092-0.005-0.133c-0.005-0.01-0.549-1.026-0.449-1.635l0.015-0.093c0.092-0.576,0.109-0.68,0.668-1.171c0.27-0.236,0.863-0.709,1.491-1.21c0.828-0.66,1.685-1.343,1.904-1.569c0.146-0.149,0.42-0.523,0.708-0.935c0.24-0.343,0.483-0.702,0.673-0.986c0.182-0.271,0.316-0.477,0.333-0.502c0.035-0.053,0.032-0.121-0.005-0.172c-0.037-0.049-0.103-0.07-0.163-0.054c-0.012,0.004-0.299,0.091-0.755,0.241c-0.171,0.057-0.366,0.123-0.581,0.197c-1.043,0.36-2.534,0.918-3.901,1.579c-0.599,0.29-1.169,0.599-1.668,0.919c-0.122,0.079-0.245,0.157-0.357,0.237c-2.302,1.63-2.791,2.717-2.815,3.848c-0.021,0.932,0,2.055,0,2.066c0,0.017,0.003,0.033,0.009,0.05l0.098,0.264L32.071,80.6z M32.229,78.133c0.019-0.838,0.243-1.877,2.689-3.609c1.965-1.394,5.571-2.618,6.773-3.005c-0.395,0.593-1.178,1.751-1.445,2.026c-0.207,0.213-1.094,0.92-1.876,1.544c-0.631,0.503-1.227,0.978-1.502,1.22c-0.617,0.541-0.664,0.712-0.767,1.348l-0.015,0.092c-0.091,0.547,0.231,1.312,0.394,1.652l-4.173,0.972l-0.078-0.21C32.225,79.991,32.21,78.981,32.229,78.133z" />
    <path fill="#F39200" d="M44.557,77.137h0.798c0.146,0,0.265-0.119,0.265-0.267v-0.125c0-0.146-0.119-0.265-0.265-0.265h-0.798c-0.146,0-0.265,0.118-0.265,0.265v0.125C44.292,77.018,44.411,77.137,44.557,77.137z" />
    <path fill="#1D1D1B" d="M44.557,77.288h0.798c0.229,0,0.415-0.188,0.415-0.417v-0.125c0-0.229-0.187-0.415-0.415-0.415h-0.798c-0.229,0-0.415,0.187-0.415,0.415v0.125C44.142,77.1,44.329,77.288,44.557,77.288z M44.292,76.746c0-0.146,0.119-0.265,0.265-0.265h0.798c0.146,0,0.265,0.118,0.265,0.265v0.125c0,0.147-0.119,0.267-0.265,0.267h-0.798c-0.146,0-0.265-0.119-0.265-0.267V76.746z" />
    <path fill="#2E3638" d="M127.174,73.032c0.118-0.034,1.382-0.431,2.482-1.828l2.108-2.679c0-0.004,0.826-1.615,0.826-2.666c0-1.068-0.583-7.184-0.589-7.245c-0.001-0.015,0.013-0.554-0.392-0.972c-0.324-0.336-0.825-0.506-1.487-0.506c-2.011,0-47.083,0.006-47.083,0.006c-0.009-0.001-0.061-0.006-0.146-0.006c-0.479,0-1.591,0.144-1.591,1.471v9.132c0.086,0.184,0.961,2.005,1.785,2.68c0.122,0.099,0.253,0.217,0.405,0.354c0.939,0.846,2.511,2.26,5.324,2.26H127.174z M112.513,59.945h16.021c0,0,1.589,0.023,1.589,1.293v4.531c0,0-0.239,2.168-0.745,2.803l-0.507,0.635c0,0-0.674,1.088-1.181,1.088h-14.504c0,0-1.715-0.092-1.715-1.451c0-1.361-0.056-7.242-0.056-7.242S111.333,59.945,112.513,59.945z M96.782,60.098c0.159-0.186,0.373-0.28,0.637-0.28h7.332c0.018-0.003,1.588-0.185,1.588,1.783v3.852c-0.004,0.071-0.097,1.561-0.884,2.405l-1.81,1.934c-0.05,0.027-1.221,0.653-1.842,0.653l-4.449-0.015c-0.035-0.017-0.845-0.416-0.845-1.405v-7.424C96.505,61.583,96.358,60.593,96.782,60.098z M85.026,69.478c-0.594-0.635-1.997-1.996-1.997-3.078c0-1.08,0.012-5.162,0.012-5.162s-0.21-1.273,1.139-1.273h10.119c0,0,1.434-0.268,1.434,1.273v7.998c0,0-0.084,1.059-1.097,1.059h-8.095C86.541,70.294,85.619,70.113,85.026,69.478z" />
    <path fill="#1D1D1B" d="M82.895,56.986c-0.408,0-1.742,0.117-1.742,1.621v9.148c0,0.011,0.002,0.021,0.007,0.031c0.038,0.082,0.943,2.019,1.833,2.747c0.119,0.098,0.249,0.215,0.399,0.35c0.955,0.86,2.554,2.299,5.425,2.299h20.51h0.301h17.558c0.007,0,0.013-0.001,0.02-0.003c0.056-0.015,1.387-0.381,2.569-1.883l2.116-2.69c0.035-0.067,0.852-1.659,0.852-2.747c0-1.075-0.585-7.197-0.59-7.249c0.001-0.024,0.017-0.605-0.432-1.071c-0.354-0.367-0.891-0.554-1.597-0.554c-0.895,0-10.315,0.001-20.496,0.002c-0.101,0-0.2,0-0.301,0c-12.617,0.002-26.283,0.004-26.279,0.004C83.048,56.992,82.99,56.986,82.895,56.986z M83.088,70.418c-0.823-0.675-1.698-2.496-1.785-2.68v-9.132c0-1.328,1.113-1.471,1.591-1.471c0.085,0,0.137,0.005,0.146,0.006c0,0,45.072-0.006,47.083-0.006c0.662,0,1.163,0.17,1.487,0.506c0.404,0.418,0.391,0.958,0.392,0.972c0.006,0.062,0.589,6.177,0.589,7.245c0,1.051-0.826,2.662-0.826,2.666l-2.108,2.679c-1.101,1.397-2.364,1.794-2.482,1.828H88.817c-2.813,0-4.385-1.414-5.324-2.26C83.341,70.635,83.209,70.517,83.088,70.418z" />
    <path fill="#C2D9E6" d="M73.081,69.546c-0.02,0,0.912-0.41,1.283-1.608c0.412-1.324,1.665-8.494,1.678-8.566c0,0,0.11-0.902-0.403-1.487c-0.306-0.349-0.788-0.526-1.43-0.526l-0.137,0.002c-2.299,0.085-6.411,0.492-9.104,1.47L62.803,71.36C67.389,70.553,72.991,69.562,73.081,69.546z" />
    <path fill="#C2D9E6" d="M63.669,59.412c-2.479,1.422-7.831,5.863-7.884,5.908c0.001,0-0.809,0.776-0.736,1.871c0.079,1.175,0.015,3.074,0.002,3.425c0.094,0.276,0.651,1.763,1.78,1.763h0c0.074,0,0.151-0.006,0.23-0.019c0.575-0.094,2.644-0.455,5.113-0.89l2.139-12.378C64.085,59.194,63.866,59.299,63.669,59.412z" />
    <path fill="#1D1D1B" d="M54.462,70.743c0.027,0.092,0.683,2.236,2.37,2.236h0c0.105,0,0.214-0.009,0.327-0.027c1.669-0.272,15.883-2.79,16.089-2.833c0.05-0.021,1.231-0.524,1.689-2.003c0.422-1.36,1.644-8.344,1.697-8.651c0.006-0.048,0.152-1.177-0.541-1.972c-0.426-0.488-1.06-0.735-1.885-0.735l-0.159,0.003c-2.766,0.102-8.127,0.666-10.679,2.131c-2.523,1.447-7.748,5.782-7.981,5.978c-0.042,0.039-1.031,0.973-0.939,2.361c0.083,1.238,0,3.394,0,3.415C54.448,70.679,54.453,70.711,54.462,70.743z M64.754,58.311c0.163,0.028,0.272,0.184,0.244,0.347l-0.03,0.173c2.693-0.979,6.805-1.385,9.104-1.47l0.137-0.002c0.642,0,1.124,0.177,1.43,0.526c0.514,0.585,0.403,1.487,0.403,1.487c-0.012,0.072-1.266,7.242-1.677,8.566c-0.371,1.198-1.303,1.608-1.283,1.608c-0.09,0.016-5.692,1.007-10.278,1.813l-0.073,0.421c-0.025,0.146-0.152,0.249-0.295,0.249c-0.017,0-0.034-0.001-0.052-0.004c-0.163-0.028-0.272-0.184-0.244-0.347l0.036-0.209c-2.469,0.435-4.539,0.796-5.113,0.89c-0.08,0.013-0.156,0.019-0.23,0.019h0c-1.129,0-1.687-1.486-1.78-1.763c0.013-0.351,0.076-2.25-0.002-3.425c-0.073-1.095,0.737-1.871,0.736-1.871c0.054-0.045,5.405-4.486,7.884-5.908c0.196-0.112,0.416-0.218,0.645-0.319l0.093-0.536C64.435,58.392,64.586,58.28,64.754,58.311z" />
    <path fill="#1D1D1B" d="M64.314,59.092L62.176,71.47l-0.036,0.209c-0.028,0.163,0.081,0.318,0.244,0.347c0.018,0.003,0.035,0.004,0.052,0.004c0.143,0,0.27-0.103,0.295-0.249l0.073-0.421l2.165-12.529l0.03-0.173c0.028-0.163-0.081-0.318-0.244-0.347c-0.168-0.031-0.319,0.081-0.347,0.245L64.314,59.092z" />
    <path fill="#C2D9E6" d="M96.808,61.578l0.002,7.447c0,0.709,0.52,1.048,0.646,1.119h4.348c0.443,0,1.341-0.426,1.678-0.604l1.754-1.887c0.714-0.766,0.803-2.194,0.804-2.209l-0.001-3.843c0-1.343-0.823-1.488-1.177-1.488c-0.052,0-0.084,0.004-0.088,0.004l-7.354,0.002c-0.174,0-0.308,0.057-0.408,0.174C96.731,60.618,96.77,61.331,96.808,61.578z" />
    <path fill="#1D1D1B" d="M96.509,69.025c0,0.989,0.81,1.389,0.845,1.405l4.449,0.015c0.621,0,1.792-0.626,1.842-0.653l1.81-1.934c0.787-0.845,0.88-2.334,0.884-2.405v-3.852c0-1.968-1.57-1.786-1.588-1.783h-7.332c-0.264,0-0.478,0.095-0.637,0.28c-0.424,0.495-0.276,1.484-0.272,1.503V69.025z M97.418,60.119l7.354-0.002c0.004,0,0.036-0.004,0.088-0.004c0.354,0,1.177,0.146,1.177,1.488l0.001,3.843c-0.001,0.015-0.09,1.443-0.804,2.209l-1.754,1.887c-0.337,0.179-1.234,0.604-1.678,0.604h-4.348c-0.126-0.071-0.646-0.41-0.646-1.119l-0.002-7.447c-0.038-0.247-0.077-0.96,0.202-1.285C97.111,60.175,97.245,60.119,97.418,60.119z" />
    <path fill="#C2D9E6" d="M95.732,69.236v-7.998c0-1.541-1.434-1.273-1.434-1.273H84.179c-1.349,0-1.139,1.273-1.139,1.273s-0.012,4.082-0.012,5.162c0,1.082,1.403,2.443,1.997,3.078c0.593,0.635,1.515,0.816,1.515,0.816h8.095C95.648,70.294,95.732,69.236,95.732,69.236z" />
    <path fill="#C2D9E6" d="M111.472,68.843c0,1.359,1.715,1.451,1.715,1.451h14.504c0.507,0,1.181-1.088,1.181-1.088l0.507-0.635c0.506-0.635,0.745-2.803,0.745-2.803v-4.531c0-1.27-1.589-1.293-1.589-1.293h-16.021c-1.181,0-1.097,1.656-1.097,1.656S111.472,67.482,111.472,68.843z" />
    <path fill="#1D1D1B" d="M127.08,96.105c0-5.04-3.81-9.14-8.492-9.14c-4.684,0-8.493,4.1-8.493,9.14s3.81,9.14,8.493,9.14C123.27,105.245,127.08,101.145,127.08,96.105z M118.587,104.926c-4.525,0-8.207-3.957-8.207-8.821s3.682-8.821,8.207-8.821s8.207,3.957,8.207,8.821S123.113,104.926,118.587,104.926z" />
    <path fill="#1D1D1B" d="M118.587,86.815c-4.76,0-8.633,4.157-8.643,9.271c0,0.007-0.001,0.013-0.001,0.02c0,5.122,3.878,9.29,8.644,9.29c4.585,0,8.337-3.86,8.615-8.715c0.012-0.191,0.027-0.381,0.027-0.575C127.23,90.983,123.353,86.815,118.587,86.815z M118.587,105.245c-4.684,0-8.493-4.1-8.493-9.14s3.81-9.14,8.493-9.14c4.683,0,8.492,4.1,8.492,9.14S123.27,105.245,118.587,105.245z" />
    <path fill="#3C3C3B" d="M126.644,96.105c0-4.781-3.614-8.671-8.057-8.671s-8.057,3.89-8.057,8.671s3.614,8.671,8.057,8.671S126.644,100.886,126.644,96.105z M118.582,101.819c-2.925,0-5.304-2.557-5.304-5.698s2.379-5.698,5.304-5.698c2.924,0,5.303,2.557,5.303,5.698S121.505,101.819,118.582,101.819z" />
    <path fill="#1D1D1B" d="M126.794,96.105c0-4.864-3.682-8.821-8.207-8.821s-8.207,3.957-8.207,8.821s3.682,8.821,8.207,8.821S126.794,100.969,126.794,96.105z M118.587,104.776c-4.442,0-8.057-3.89-8.057-8.671s3.614-8.671,8.057-8.671s8.057,3.89,8.057,8.671S123.03,104.776,118.587,104.776z" />
    <path fill="#B2B2B2" d="M119.503,96.596l0.079-0.357c0.003-0.011,0.008-0.021,0.015-0.03l0.063-0.076l-0.029-0.349l-0.146-0.089c-0.01-0.006-0.018-0.014-0.023-0.023l-0.229-0.346c-0.008-0.012-0.013-0.026-0.013-0.041v-0.073l-0.251-0.151l-0.128,0.057c-0.012,0.006-0.022,0.007-0.035,0.007l-0.429-0.027l-0.161-0.04l-0.203,0.129v0.064c0,0.018-0.006,0.034-0.018,0.048l-0.285,0.348c-0.011,0.014-0.027,0.023-0.046,0.026l-0.081,0.013l-0.063,0.303l0.106,0.099c0.013,0.012,0.021,0.027,0.023,0.045l0.056,0.416c0.002,0.01,0.001,0.021-0.002,0.03l-0.045,0.155L117.882,97l0.086-0.022c0.02-0.007,0.04-0.004,0.06,0.009l0.326,0.203c0.01,0.006,0.018,0.015,0.023,0.024l0.05,0.079h0.323l0.065-0.111c0.008-0.014,0.021-0.025,0.036-0.031l0.383-0.158c0.012-0.006,0.025-0.009,0.039-0.005l0.123,0.018l0.159-0.225l-0.05-0.143C119.501,96.625,119.5,96.61,119.503,96.596z M118.837,96.994c-0.015,0.015-0.034,0.022-0.054,0.022c-0.009,0-0.018-0.002-0.026-0.005l-0.924-0.346c-0.026-0.01-0.045-0.034-0.048-0.063l-0.062-0.586c-0.003-0.026,0.008-0.052,0.029-0.067c0.021-0.016,0.781-0.609,0.781-0.609c0.022-0.015,0.052-0.02,0.074-0.01l0.82,0.34c0.025,0.011,0.043,0.033,0.046,0.061l0.061,0.51c0.003,0.022-0.005,0.045-0.021,0.062L118.837,96.994z" />
    <path fill="#B2B2B2" d="M123.734,96.121c0-3.06-2.312-5.548-5.152-5.548c-2.842,0-5.153,2.488-5.153,5.548s2.312,5.548,5.153,5.548C121.422,101.668,123.734,99.18,123.734,96.121z M123.015,94.322c0.018,0.01,0.031,0.026,0.037,0.046c0.013,0.048,0.318,1.156,0.256,1.728c0.001,0.006,0.002,0.012,0.001,0.018c-0.007,0.074-0.007,0.074-0.544,0.074c-0.577,0-1.48-0.007-1.48-0.007c-0.007,0-0.015-0.001-0.021-0.004c-0.009-0.002-0.212-0.067-0.271-0.238c-0.035-0.104-0.012-0.219,0.072-0.34c0.241-0.354,0.7-0.87,1.892-1.281C122.975,94.311,122.997,94.311,123.015,94.322z M121.098,91.918c0.012-0.017,0.03-0.028,0.051-0.03c0.026-0.006,0.042,0.003,0.058,0.017c0.04,0.033,0.986,0.82,1.179,1.233c0.011,0.022,0.009,0.05-0.005,0.071c-0.008,0.012-0.019,0.021-0.031,0.027c-0.082,0.055-0.969,0.766-1.552,1.235c-0.013,0.011-0.144,0.12-0.276,0.12c-0.079,0-0.215-0.039-0.243-0.298C120.236,93.919,120.353,92.94,121.098,91.918z M118.356,91.055c0.775,0,1.57,0.205,1.604,0.214c0.039,0.01,0.063,0.049,0.055,0.088c-0.072,0.334-0.533,1.751-0.647,2.085c-0.059,0.168-0.112,0.297-0.232,0.297c-0.098,0-0.191-0.093-0.362-0.27c-0.214-0.221-0.328-1.061-0.427-1.903c-0.02-0.171-0.04-0.348-0.052-0.395c-0.008-0.012-0.013-0.025-0.013-0.041C118.281,91.089,118.315,91.055,118.356,91.055z M116.985,91.347c0.02-0.011,0.044-0.012,0.063-0.003c0.021,0.009,0.036,0.025,0.043,0.047c0.023,0.073,0.563,1.794,0.634,2.122c0.008,0.037,0.016,0.07,0.023,0.101c0.029,0.123,0.048,0.204-0.001,0.267c-0.041,0.051-0.109,0.058-0.158,0.058c-0.067,0-0.159-0.014-0.277-0.032c-0.476-0.075-1.588-1.364-1.691-1.559c-0.008-0.014-0.026-0.048-0.009-0.086C115.84,91.959,116.938,91.373,116.985,91.347z M114.679,93.263c0.019-0.027,0.052-0.041,0.085-0.031c0.031,0.01,0.054,0.039,0.054,0.072c0.054,0.098,0.907,0.755,1.272,1.035c0.178,0.137,0.306,0.235,0.345,0.27c0.023,0.021,0.052,0.04,0.079,0.058c0.074,0.05,0.158,0.105,0.153,0.203c-0.005,0.104-0.114,0.202-0.376,0.341c-0.117,0.062-0.275,0.093-0.471,0.093c-0.545,0-1.279-0.243-1.592-0.347c-0.077-0.025-0.129-0.043-0.147-0.047c-0.021,0-0.036-0.008-0.05-0.022c-0.015-0.015-0.019-0.034-0.018-0.055C114.039,94.264,114.654,93.304,114.679,93.263z M114.263,98.043c-0.023,0-0.047-0.012-0.061-0.031c-0.458-0.635-0.347-1.771-0.342-1.819c0.004-0.038,0.036-0.067,0.074-0.067c0.002,0,0.004,0,0.007,0c0.012,0.002,1.213,0.106,1.979,0.156c0.218,0.015,0.352,0.088,0.396,0.219c0.125,0.365-0.557,0.973-0.586,0.999c-0.27,0.235-1.4,0.529-1.448,0.541C114.276,98.042,114.269,98.043,114.263,98.043z M116.759,99.419c-0.191,0.382-0.612,0.929-0.63,0.952c-0.013,0.016-0.03,0.026-0.05,0.028c-0.004,0.001-0.007,0.001-0.01,0.001c-0.017,0-0.033-0.006-0.046-0.016c-0.037-0.029-0.912-0.713-1.15-1.125c-0.009-0.015-0.012-0.031-0.011-0.047c0.005-0.044,0.009-0.078,1.549-1.15c0.023-0.03,0.216-0.238,0.381-0.238c0.072,0,0.194,0.038,0.207,0.296C117.024,98.646,116.952,99.035,116.759,99.419z M118.921,101.114c-0.002,0.04-0.035,0.072-0.075,0.072c0,0-0.014,0-0.015,0c-0.303,0-1.295-0.014-1.525-0.182c-0.01-0.005-0.018-0.013-0.024-0.022c-0.025-0.036-0.025-0.036,0.107-0.389c0.127-0.336,0.319-0.844,0.378-1.067c0.017-0.066,0.032-0.146,0.049-0.23c0.063-0.32,0.128-0.651,0.34-0.651c0.082,0,0.166,0.054,0.258,0.165c0.389,0.468,0.438,0.581,0.486,1.102C118.947,100.414,118.921,101.107,118.921,101.114z M119.42,97.16l-0.147-0.021l-0.341,0.141l-0.074,0.127c-0.014,0.022-0.038,0.037-0.064,0.037h-0.408c-0.026,0-0.05-0.014-0.063-0.036l-0.063-0.1l-0.283-0.177l-0.102,0.026c-0.028,0.008-0.058-0.001-0.077-0.024l-0.28-0.336c-0.016-0.019-0.021-0.045-0.015-0.068l0.052-0.179l-0.05-0.373l-0.118-0.109c-0.02-0.018-0.028-0.044-0.022-0.069l0.081-0.395c0.006-0.031,0.03-0.055,0.062-0.06l0.104-0.017l0.25-0.305v-0.079c0-0.025,0.014-0.05,0.035-0.063l0.266-0.168c0.017-0.011,0.04-0.015,0.059-0.009l0.179,0.045l0.396,0.023l0.146-0.064c0.022-0.011,0.047-0.008,0.069,0.004l0.321,0.193c0.022,0.014,0.036,0.038,0.036,0.064v0.093l0.208,0.313l0.164,0.101c0.021,0.013,0.033,0.034,0.036,0.059l0.035,0.416c0.001,0.019-0.005,0.038-0.017,0.053l-0.07,0.086l-0.07,0.319l0.056,0.159c0.009,0.023,0.005,0.049-0.009,0.069l-0.209,0.293C119.476,97.152,119.449,97.167,119.42,97.16z M121.519,100.092c-0.031,0.027-0.753,0.684-1.262,0.775c-0.009,0.003-0.018,0.005-0.027,0.005c-0.016,0-0.033-0.006-0.046-0.015c-0.025-0.018-0.037-0.049-0.03-0.078c0.001-0.003,0.001-0.005,0.002-0.008c-0.028-0.146-0.283-0.858-0.408-1.209c-0.057-0.158-0.103-0.288-0.125-0.354l-0.008-0.023c-0.075-0.224-0.17-0.501-0.069-0.642c0.035-0.049,0.123-0.107,0.286-0.063c0.403,0.107,0.812,0.351,1.091,0.652c0.285,0.305,0.598,0.842,0.61,0.864C121.551,100.03,121.544,100.068,121.519,100.092z M122.457,99.014c-0.015,0.013-0.032,0.02-0.051,0.02c-0.033,0-0.049,0-1.646-1.222c-0.043-0.018-0.154-0.072-0.162-0.174c-0.01-0.117,0.121-0.188,0.163-0.211c0.047-0.024,0.094-0.053,0.143-0.081c0.204-0.12,0.435-0.257,0.727-0.257c0.062,0,0.125,0.006,0.188,0.019c0.424,0.083,1.216,0.319,1.249,0.329c0.039,0.012,0.062,0.054,0.051,0.093C123.104,97.579,122.774,98.726,122.457,99.014z" />
    <path fill="#1D1D1B" d="M123.884,96.121c0-3.142-2.379-5.698-5.303-5.698c-2.925,0-5.304,2.557-5.304,5.698s2.379,5.698,5.304,5.698C121.505,101.819,123.884,99.262,123.884,96.121z M118.582,101.668c-2.842,0-5.153-2.488-5.153-5.548s2.312-5.548,5.153-5.548c2.841,0,5.152,2.488,5.152,5.548S121.422,101.668,118.582,101.668z" />
    <path fill="#232323" d="M117.335,93.757c0.227,0.036,0.296,0.024,0.3,0.025c-0.003-0.009-0.019-0.075-0.033-0.135c-0.007-0.031-0.016-0.065-0.023-0.104c-0.06-0.279-0.49-1.66-0.603-2.021c-0.336,0.183-1.007,0.57-1.207,0.781C115.927,92.549,116.947,93.696,117.335,93.757z" />
    <path fill="#1D1D1B" d="M117.312,93.906c0.118,0.019,0.21,0.032,0.277,0.032c0.049,0,0.117-0.007,0.158-0.058c0.049-0.063,0.03-0.144,0.001-0.267c-0.008-0.03-0.016-0.063-0.023-0.101c-0.07-0.328-0.61-2.049-0.634-2.122c-0.007-0.021-0.022-0.038-0.043-0.047c-0.02-0.009-0.044-0.008-0.063,0.003c-0.047,0.025-1.145,0.612-1.373,0.914c-0.018,0.038,0.001,0.072,0.009,0.086C115.724,92.542,116.836,93.831,117.312,93.906z M116.976,91.523c0.112,0.361,0.543,1.742,0.603,2.021c0.008,0.038,0.017,0.072,0.023,0.104c0.015,0.06,0.03,0.126,0.033,0.135c-0.004-0.001-0.073,0.011-0.3-0.025c-0.389-0.062-1.408-1.208-1.566-1.453C115.969,92.093,116.64,91.706,116.976,91.523z" />
    <path fill="#232323" d="M118.879,93.366c0.08,0.082,0.213,0.219,0.254,0.223c0.014-0.009,0.041-0.05,0.091-0.195c0.104-0.302,0.519-1.575,0.627-1.996c-0.203-0.048-0.805-0.178-1.399-0.19c0.012,0.073,0.024,0.182,0.043,0.342C118.556,92.073,118.683,93.163,118.879,93.366z" />
    <path fill="#1D1D1B" d="M118.345,91.566c0.099,0.843,0.213,1.683,0.427,1.903c0.171,0.177,0.265,0.27,0.362,0.27c0.12,0,0.174-0.129,0.232-0.297c0.114-0.334,0.575-1.751,0.647-2.085c0.009-0.039-0.016-0.078-0.055-0.088c-0.033-0.009-0.828-0.214-1.604-0.214c-0.041,0-0.075,0.034-0.075,0.075c0,0.016,0.005,0.029,0.013,0.041C118.305,91.218,118.326,91.395,118.345,91.566z M119.851,91.397c-0.108,0.421-0.523,1.694-0.627,1.996c-0.05,0.146-0.077,0.187-0.091,0.195c-0.041-0.004-0.174-0.141-0.254-0.223c-0.196-0.203-0.323-1.293-0.385-1.817c-0.019-0.16-0.031-0.269-0.043-0.342C119.046,91.219,119.648,91.349,119.851,91.397z" />
    <path fill="#232323" d="M120.521,94.442c0.065,0,0.154-0.063,0.181-0.085c1.02-0.822,1.381-1.109,1.52-1.209c-0.196-0.336-0.846-0.902-1.049-1.076c-0.627,0.893-0.791,1.804-0.746,2.207C120.445,94.442,120.502,94.442,120.521,94.442z" />
    <path fill="#1D1D1B" d="M120.521,94.592c0.133,0,0.264-0.109,0.276-0.12c0.583-0.47,1.47-1.181,1.552-1.235c0.013-0.006,0.023-0.016,0.031-0.027c0.014-0.021,0.016-0.049,0.005-0.071c-0.192-0.413-1.139-1.2-1.179-1.233c-0.016-0.014-0.031-0.022-0.058-0.017c-0.021,0.002-0.039,0.014-0.051,0.03c-0.745,1.021-0.862,2.001-0.82,2.376C120.306,94.553,120.442,94.592,120.521,94.592z M122.221,93.148c-0.139,0.1-0.5,0.387-1.52,1.209c-0.026,0.021-0.115,0.085-0.181,0.085c-0.019,0-0.076,0-0.095-0.163c-0.045-0.403,0.119-1.314,0.746-2.207C121.375,92.246,122.025,92.812,122.221,93.148z" />
    <path fill="#232323" d="M121.187,95.682c-0.055,0.08-0.072,0.149-0.054,0.206c0.026,0.076,0.12,0.125,0.165,0.142c0.11,0.001,0.93,0.007,1.467,0.007c0.225,0,0.34-0.001,0.398-0.002c0.033-0.469-0.169-1.293-0.235-1.549C121.835,94.877,121.412,95.355,121.187,95.682z" />
    <path fill="#1D1D1B" d="M121.064,95.598c-0.084,0.121-0.107,0.235-0.072,0.34c0.06,0.171,0.263,0.236,0.271,0.238c0.007,0.003,0.015,0.004,0.021,0.004c0,0,0.903,0.007,1.48,0.007c0.537,0,0.537,0,0.544-0.074c0.001-0.006,0-0.012-0.001-0.018c0.063-0.571-0.243-1.68-0.256-1.728c-0.006-0.02-0.02-0.036-0.037-0.046c-0.019-0.011-0.04-0.011-0.06-0.005C121.764,94.728,121.305,95.245,121.064,95.598z M122.765,96.037c-0.537,0-1.356-0.006-1.467-0.007c-0.045-0.017-0.139-0.065-0.165-0.142c-0.019-0.057-0.001-0.126,0.054-0.206c0.225-0.327,0.648-0.805,1.741-1.196c0.066,0.256,0.269,1.08,0.235,1.549C123.105,96.036,122.99,96.037,122.765,96.037z" />
    <path fill="#232323" d="M121.789,97.254c-0.053-0.01-0.106-0.016-0.158-0.016c-0.251,0-0.454,0.12-0.65,0.236c-0.05,0.029-0.099,0.059-0.146,0.085c-0.078,0.042-0.086,0.067-0.086,0.067c0.004,0.01,0.042,0.035,0.075,0.048c0.007,0.002,0.014,0.006,0.021,0.011c0.545,0.417,1.349,1.029,1.552,1.175c0.213-0.25,0.455-0.959,0.558-1.301C122.745,97.499,122.133,97.323,121.789,97.254z" />
    <path fill="#1D1D1B" d="M121.818,97.108c-0.063-0.013-0.126-0.019-0.188-0.019c-0.292,0-0.522,0.137-0.727,0.257c-0.049,0.028-0.096,0.057-0.143,0.081c-0.042,0.023-0.173,0.094-0.163,0.211c0.008,0.102,0.119,0.156,0.162,0.174c1.597,1.222,1.612,1.222,1.646,1.222c0.019,0,0.036-0.007,0.051-0.02c0.317-0.288,0.647-1.436,0.661-1.484c0.011-0.039-0.012-0.081-0.051-0.093C123.034,97.427,122.242,97.191,121.818,97.108z M120.843,97.686c-0.007-0.005-0.014-0.009-0.021-0.011c-0.033-0.013-0.071-0.038-0.075-0.048c0,0,0.008-0.025,0.086-0.067c0.048-0.026,0.097-0.056,0.146-0.085c0.196-0.116,0.399-0.236,0.65-0.236c0.052,0,0.105,0.006,0.158,0.016c0.345,0.068,0.956,0.244,1.164,0.306c-0.103,0.342-0.345,1.051-0.558,1.301C122.192,98.715,121.388,98.103,120.843,97.686z" />
    <path fill="#232323" d="M119.792,98.626c-0.029-0.008-0.055-0.012-0.075-0.012c-0.037,0-0.047,0.013-0.05,0.018c-0.056,0.077,0.039,0.355,0.09,0.505l0.008,0.023c0.022,0.066,0.067,0.194,0.124,0.352c0.269,0.753,0.37,1.058,0.404,1.193c0.394-0.106,0.922-0.548,1.079-0.684c-0.087-0.144-0.337-0.547-0.56-0.786C120.551,98.955,120.17,98.727,119.792,98.626z" />
    <path fill="#1D1D1B" d="M119.832,98.482c-0.163-0.045-0.251,0.014-0.286,0.063c-0.101,0.141-0.006,0.418,0.069,0.642l0.008,0.023c0.022,0.065,0.068,0.195,0.125,0.354c0.125,0.351,0.38,1.063,0.408,1.209c-0.001,0.003-0.001,0.005-0.002,0.008c-0.007,0.029,0.005,0.061,0.03,0.078c0.013,0.009,0.03,0.015,0.046,0.015c0.01,0,0.019-0.002,0.027-0.005c0.509-0.092,1.23-0.748,1.262-0.775c0.025-0.024,0.032-0.063,0.014-0.094c-0.013-0.022-0.325-0.56-0.61-0.864C120.643,98.833,120.235,98.589,119.832,98.482z M120.293,100.706c-0.034-0.136-0.136-0.44-0.404-1.193c-0.057-0.157-0.102-0.285-0.124-0.352l-0.008-0.023c-0.051-0.149-0.146-0.428-0.09-0.505c0.003-0.005,0.013-0.018,0.05-0.018c0.021,0,0.046,0.004,0.075,0.012c0.378,0.101,0.759,0.328,1.021,0.609c0.223,0.239,0.473,0.643,0.56,0.786C121.215,100.158,120.687,100.599,120.293,100.706z" />
    <path fill="#232323" d="M118.751,99.924c-0.046-0.488-0.084-0.574-0.453-1.02c-0.085-0.104-0.131-0.111-0.143-0.111c-0.089,0-0.158,0.358-0.192,0.531c-0.018,0.087-0.033,0.171-0.052,0.239c-0.061,0.231-0.254,0.744-0.382,1.083c-0.039,0.103-0.076,0.201-0.097,0.259c0.189,0.086,0.797,0.127,1.341,0.13C118.779,100.846,118.789,100.323,118.751,99.924z" />
    <path fill="#1D1D1B" d="M118.414,98.809c-0.092-0.111-0.176-0.165-0.258-0.165c-0.212,0-0.276,0.331-0.34,0.651c-0.017,0.084-0.032,0.164-0.049,0.23c-0.059,0.224-0.251,0.731-0.378,1.067c-0.133,0.353-0.133,0.353-0.107,0.389c0.007,0.01,0.015,0.018,0.024,0.022c0.23,0.168,1.223,0.182,1.525,0.182c0.001,0,0.015,0,0.015,0c0.04,0,0.073-0.032,0.075-0.072c0-0.007,0.025-0.7-0.021-1.203C118.852,99.39,118.802,99.277,118.414,98.809z M117.53,100.647c0.128-0.339,0.321-0.852,0.382-1.083c0.019-0.068,0.034-0.152,0.052-0.239c0.034-0.173,0.104-0.531,0.192-0.531c0.012,0,0.058,0.008,0.143,0.111c0.369,0.445,0.407,0.531,0.453,1.02c0.037,0.398,0.027,0.922,0.022,1.111c-0.544-0.003-1.151-0.044-1.341-0.13C117.454,100.848,117.491,100.75,117.53,100.647z" />
    <path fill="#232323" d="M116.849,98.128c-0.001-0.036-0.011-0.153-0.057-0.153c-0.072,0-0.211,0.118-0.281,0.199c-0.511,0.357-1.295,0.912-1.478,1.06c0.235,0.34,0.832,0.832,1.022,0.985c0.116-0.154,0.42-0.57,0.568-0.866C116.805,98.992,116.873,98.625,116.849,98.128z" />
    <path fill="#1D1D1B" d="M116.792,97.825c-0.165,0-0.357,0.208-0.381,0.238c-1.54,1.072-1.544,1.106-1.549,1.15c-0.001,0.016,0.002,0.032,0.011,0.047c0.238,0.412,1.113,1.096,1.15,1.125c0.013,0.01,0.029,0.016,0.046,0.016c0.003,0,0.006,0,0.01-0.001c0.02-0.002,0.037-0.013,0.05-0.028c0.018-0.023,0.438-0.57,0.63-0.952c0.192-0.385,0.265-0.773,0.24-1.299C116.987,97.863,116.865,97.825,116.792,97.825z M115.034,99.234c0.183-0.147,0.967-0.702,1.478-1.06c0.07-0.081,0.209-0.199,0.281-0.199c0.046,0,0.056,0.117,0.057,0.153c0.023,0.497-0.044,0.863-0.225,1.225c-0.148,0.296-0.452,0.712-0.568,0.866C115.866,100.066,115.269,99.574,115.034,99.234z" />
    <path fill="#232323" d="M116.174,96.549c-0.029-0.085-0.159-0.11-0.264-0.117c-0.656-0.043-1.63-0.126-1.906-0.15c-0.016,0.253-0.04,1.094,0.291,1.601c0.351-0.093,1.145-0.328,1.335-0.496C115.887,97.16,116.238,96.737,116.174,96.549z" />
    <path fill="#1D1D1B" d="M116.316,96.5c-0.044-0.131-0.178-0.204-0.396-0.219c-0.766-0.05-1.967-0.154-1.979-0.156c-0.003,0-0.005,0-0.007,0c-0.038,0-0.07,0.029-0.074,0.067c-0.005,0.048-0.116,1.185,0.342,1.819c0.014,0.02,0.037,0.031,0.061,0.031c0.006,0,0.013-0.001,0.019-0.003c0.048-0.012,1.179-0.306,1.448-0.541C115.759,97.473,116.441,96.866,116.316,96.5z M114.295,97.882c-0.331-0.507-0.307-1.348-0.291-1.601c0.276,0.024,1.25,0.107,1.906,0.15c0.104,0.007,0.234,0.032,0.264,0.117c0.063,0.188-0.287,0.61-0.544,0.837C115.44,97.554,114.646,97.79,114.295,97.882z" />
    <path fill="#232323" d="M114.169,94.779c0.024,0.008,0.059,0.02,0.106,0.035c0.307,0.102,1.024,0.339,1.545,0.339c0.171,0,0.306-0.025,0.4-0.075c0.29-0.153,0.297-0.213,0.297-0.216c-0.004-0.016-0.059-0.051-0.087-0.07c-0.033-0.021-0.067-0.045-0.096-0.07c-0.035-0.03-0.168-0.133-0.337-0.263c-0.778-0.599-1.116-0.875-1.251-1.021C114.6,93.682,114.219,94.345,114.169,94.779z" />
    <path fill="#1D1D1B" d="M114.082,94.91c0.019,0.004,0.07,0.021,0.147,0.047c0.313,0.104,1.047,0.347,1.592,0.347c0.195,0,0.354-0.031,0.471-0.093c0.262-0.139,0.371-0.237,0.376-0.341c0.005-0.098-0.079-0.153-0.153-0.203c-0.027-0.018-0.056-0.036-0.079-0.058c-0.039-0.034-0.167-0.133-0.345-0.27c-0.365-0.28-1.219-0.938-1.272-1.035c0-0.033-0.022-0.063-0.054-0.072c-0.033-0.01-0.066,0.004-0.085,0.031c-0.025,0.041-0.641,1.001-0.665,1.569c-0.001,0.021,0.003,0.04,0.018,0.055C114.045,94.902,114.061,94.91,114.082,94.91z M116.335,94.721c0.028,0.025,0.063,0.049,0.096,0.07c0.028,0.02,0.083,0.055,0.087,0.07c0,0.003-0.007,0.063-0.297,0.216c-0.095,0.05-0.229,0.075-0.4,0.075c-0.521,0-1.238-0.237-1.545-0.339c-0.048-0.016-0.082-0.027-0.106-0.035c0.05-0.434,0.431-1.097,0.578-1.341c0.135,0.146,0.473,0.422,1.251,1.021C116.167,94.588,116.3,94.691,116.335,94.721z" />
    <path fill="#1D1D1B" d="M119.71,96.767l-0.056-0.159l0.07-0.319l0.07-0.086c0.012-0.015,0.018-0.034,0.017-0.053l-0.035-0.416c-0.003-0.024-0.016-0.046-0.036-0.059l-0.164-0.101l-0.208-0.313v-0.093c0-0.026-0.014-0.051-0.036-0.064l-0.321-0.193c-0.022-0.012-0.047-0.015-0.069-0.004l-0.146,0.064l-0.396-0.023l-0.179-0.045c-0.019-0.006-0.042-0.002-0.059,0.009l-0.266,0.168c-0.021,0.014-0.035,0.038-0.035,0.063v0.079l-0.25,0.305l-0.104,0.017c-0.031,0.005-0.056,0.028-0.062,0.06l-0.081,0.395c-0.006,0.025,0.003,0.052,0.022,0.069l0.118,0.109l0.05,0.373l-0.052,0.179c-0.007,0.023-0.001,0.05,0.015,0.068l0.28,0.336c0.02,0.023,0.049,0.032,0.077,0.024l0.102-0.026l0.283,0.177l0.063,0.1c0.014,0.022,0.037,0.036,0.063,0.036h0.408c0.026,0,0.051-0.015,0.064-0.037l0.074-0.127l0.341-0.141l0.147,0.021c0.028,0.007,0.056-0.008,0.072-0.03l0.209-0.293C119.715,96.816,119.719,96.791,119.71,96.767z M119.397,97.005l-0.123-0.018c-0.014-0.004-0.027-0.001-0.039,0.005l-0.383,0.158c-0.016,0.006-0.028,0.018-0.036,0.031l-0.065,0.111h-0.323l-0.05-0.079c-0.006-0.01-0.014-0.019-0.023-0.024l-0.326-0.203c-0.02-0.013-0.04-0.016-0.06-0.009L117.882,97l-0.225-0.269l0.045-0.155c0.003-0.01,0.004-0.021,0.002-0.03l-0.056-0.416c-0.002-0.018-0.011-0.033-0.023-0.045l-0.106-0.099l0.063-0.303l0.081-0.013c0.019-0.003,0.035-0.013,0.046-0.026l0.285-0.348c0.012-0.014,0.018-0.03,0.018-0.048v-0.064l0.203-0.129l0.161,0.04l0.429,0.027c0.013,0,0.023-0.001,0.035-0.007l0.128-0.057l0.251,0.151v0.073c0,0.015,0.005,0.029,0.013,0.041l0.229,0.346c0.006,0.01,0.014,0.018,0.023,0.023l0.146,0.089l0.029,0.349l-0.063,0.076c-0.007,0.009-0.012,0.02-0.015,0.03l-0.079,0.357c-0.003,0.014-0.002,0.028,0.003,0.042l0.05,0.143L119.397,97.005z" />
    <path fill="#DADADA" d="M119.382,96.223l-0.051-0.431l-0.739-0.307c-0.13,0.101-0.586,0.457-0.715,0.557l0.052,0.499l0.835,0.313L119.382,96.223z M118.735,96.539c-0.015,0.019-0.036,0.028-0.059,0.028c-0.014,0-0.027-0.004-0.039-0.012l-0.383-0.236c-0.019-0.011-0.031-0.03-0.035-0.052c-0.003-0.021,0.003-0.044,0.018-0.061l0.298-0.346c0.023-0.027,0.061-0.031,0.09-0.019l0.391,0.195c0.021,0.011,0.035,0.029,0.04,0.051c0.005,0.022,0,0.045-0.015,0.063L118.735,96.539z" />
    <path fill="#1D1D1B" d="M119.515,96.302c0.016-0.017,0.023-0.039,0.021-0.062l-0.061-0.51c-0.003-0.027-0.021-0.05-0.046-0.061l-0.82-0.34c-0.022-0.01-0.052-0.005-0.074,0.01c0,0-0.761,0.594-0.781,0.609c-0.021,0.016-0.032,0.041-0.029,0.067l0.062,0.586c0.003,0.028,0.021,0.053,0.048,0.063l0.924,0.346c0.009,0.003,0.018,0.005,0.026,0.005c0.02,0,0.039-0.008,0.054-0.022L119.515,96.302z M117.929,96.542l-0.052-0.499c0.129-0.1,0.585-0.456,0.715-0.557l0.739,0.307l0.051,0.431l-0.618,0.631L117.929,96.542z" />
    <path fill="#1D1D1B" d="M119.041,96.152c0.015-0.019,0.02-0.041,0.015-0.063c-0.005-0.021-0.02-0.04-0.04-0.051l-0.391-0.195c-0.029-0.013-0.066-0.009-0.09,0.019l-0.298,0.346c-0.015,0.017-0.021,0.039-0.018,0.061c0.004,0.021,0.017,0.041,0.035,0.052l0.383,0.236c0.012,0.008,0.025,0.012,0.039,0.012c0.022,0,0.044-0.01,0.059-0.028L119.041,96.152z" />
    <path fill="#1D1D1B" d="M54.699,96.105c0-5.04-3.81-9.14-8.492-9.14c-4.683,0-8.493,4.1-8.493,9.14s3.81,9.14,8.493,9.14C50.889,105.245,54.699,101.145,54.699,96.105z M46.206,104.926c-4.525,0-8.207-3.957-8.207-8.821s3.682-8.821,8.207-8.821c4.526,0,8.208,3.957,8.208,8.821S50.731,104.926,46.206,104.926z" />
    <path fill="#1D1D1B" d="M46.207,86.815c-4.766,0-8.644,4.168-8.644,9.29c0,0.141,0.014,0.277,0.02,0.417c0.012,0.279,0.033,0.556,0.067,0.828c0.002,0.019,0.005,0.036,0.008,0.055c0.592,4.508,4.194,7.99,8.549,7.99c4.573,0,8.318-3.841,8.614-8.677c0.012-0.204,0.029-0.406,0.029-0.613C54.849,90.983,50.972,86.815,46.207,86.815z M46.207,105.245c-4.683,0-8.493-4.1-8.493-9.14s3.81-9.14,8.493-9.14c4.683,0,8.492,4.1,8.492,9.14S50.889,105.245,46.207,105.245z" />
    <path fill="#3C3C3B" d="M54.263,96.105c0-4.781-3.615-8.671-8.058-8.671c-4.442,0-8.057,3.89-8.057,8.671s3.614,8.671,8.057,8.671C50.648,104.776,54.263,100.886,54.263,96.105z M46.201,101.819c-2.924,0-5.304-2.557-5.304-5.698s2.379-5.698,5.304-5.698c2.924,0,5.303,2.557,5.303,5.698S49.125,101.819,46.201,101.819z" />
    <path fill="#1D1D1B" d="M54.414,96.105c0-4.864-3.682-8.821-8.208-8.821c-4.525,0-8.207,3.957-8.207,8.821s3.682,8.821,8.207,8.821C50.731,104.926,54.414,100.969,54.414,96.105z M46.206,104.776c-4.442,0-8.057-3.89-8.057-8.671s3.614-8.671,8.057-8.671c4.443,0,8.058,3.89,8.058,8.671S50.648,104.776,46.206,104.776z" />
    <path fill="#B2B2B2" d="M51.353,96.121c0-3.06-2.311-5.548-5.152-5.548c-2.842,0-5.153,2.488-5.153,5.548s2.312,5.548,5.153,5.548C49.042,101.668,51.353,99.18,51.353,96.121z M50.634,94.322c0.019,0.01,0.032,0.026,0.038,0.046c0.013,0.048,0.319,1.157,0.256,1.728c0.001,0.006,0.001,0.012,0,0.018c-0.007,0.074-0.007,0.074-0.545,0.074c-0.577,0-1.479-0.007-1.479-0.007c-0.007,0-0.015-0.001-0.022-0.004c-0.008-0.002-0.212-0.067-0.271-0.238c-0.036-0.104-0.012-0.219,0.071-0.34c0.242-0.354,0.701-0.87,1.892-1.281C50.594,94.312,50.616,94.312,50.634,94.322z M48.717,91.918c0.012-0.017,0.031-0.028,0.051-0.03c0.021-0.006,0.041,0.003,0.057,0.017c0.04,0.033,0.986,0.82,1.178,1.233c0.011,0.022,0.009,0.05-0.004,0.071c-0.008,0.012-0.019,0.021-0.031,0.027c-0.083,0.055-0.969,0.766-1.552,1.235c-0.013,0.011-0.144,0.12-0.277,0.12c-0.079,0-0.216-0.039-0.244-0.298C47.854,93.918,47.974,92.938,48.717,91.918z M45.975,91.055c0.775,0,1.57,0.205,1.604,0.214c0.039,0.01,0.063,0.049,0.054,0.088c-0.072,0.334-0.533,1.751-0.648,2.085c-0.058,0.168-0.112,0.297-0.232,0.297c-0.097,0-0.191-0.093-0.362-0.27c-0.215-0.221-0.33-1.064-0.428-1.91c-0.02-0.168-0.04-0.342-0.051-0.388C45.905,91.16,45.9,91.145,45.9,91.13C45.9,91.089,45.934,91.055,45.975,91.055z M44.604,91.347c0.02-0.01,0.043-0.011,0.063-0.003c0.021,0.009,0.037,0.025,0.043,0.047c0.023,0.073,0.563,1.794,0.633,2.122c0.008,0.037,0.016,0.07,0.023,0.101c0.029,0.123,0.049,0.204,0,0.267c-0.041,0.051-0.11,0.058-0.158,0.058c-0.067,0-0.16-0.014-0.278-0.032c-0.476-0.075-1.587-1.364-1.691-1.559c-0.007-0.014-0.025-0.048-0.008-0.086C43.458,91.96,44.557,91.373,44.604,91.347z M42.299,93.263c0.018-0.027,0.052-0.04,0.084-0.031c0.032,0.01,0.054,0.039,0.054,0.072c0.053,0.097,0.902,0.751,1.264,1.029c0.182,0.14,0.313,0.241,0.352,0.276c0.023,0.021,0.052,0.039,0.079,0.057c0.074,0.05,0.159,0.105,0.154,0.203c-0.005,0.104-0.114,0.203-0.375,0.341c-0.117,0.062-0.275,0.093-0.47,0.093c-0.544,0-1.278-0.242-1.591-0.347c-0.077-0.025-0.13-0.043-0.149-0.047c-0.021,0-0.036-0.008-0.05-0.022s-0.018-0.034-0.017-0.055C41.658,94.264,42.272,93.304,42.299,93.263z M41.882,98.043c-0.024,0-0.046-0.012-0.061-0.031c-0.458-0.635-0.347-1.771-0.342-1.819c0.004-0.04,0.045-0.066,0.081-0.067c0.012,0.002,1.213,0.106,1.979,0.156c0.218,0.015,0.351,0.088,0.396,0.219c0.125,0.365-0.558,0.973-0.586,0.999c-0.271,0.235-1.4,0.529-1.448,0.541C41.895,98.042,41.889,98.043,41.882,98.043z M44.378,99.419c-0.191,0.382-0.612,0.929-0.629,0.952c-0.012,0.016-0.03,0.026-0.05,0.028c-0.003,0.001-0.006,0.001-0.009,0.001c-0.017,0-0.033-0.006-0.046-0.016c-0.037-0.029-0.912-0.713-1.151-1.125c-0.008-0.015-0.012-0.031-0.01-0.047c0.005-0.044,0.008-0.078,1.548-1.15c0.023-0.03,0.216-0.238,0.38-0.238c0.072,0,0.195,0.038,0.207,0.296C44.643,98.646,44.571,99.035,44.378,99.419z M46.54,101.114c-0.001,0.04-0.034,0.072-0.074,0.072h-0.015c-0.303,0-1.295-0.014-1.525-0.182c-0.01-0.005-0.019-0.013-0.025-0.022c-0.025-0.036-0.025-0.036,0.108-0.389c0.127-0.336,0.318-0.844,0.377-1.067c0.018-0.066,0.033-0.146,0.05-0.23c0.063-0.32,0.127-0.651,0.34-0.651c0.082,0,0.166,0.054,0.258,0.165c0.388,0.468,0.438,0.581,0.486,1.102C46.566,100.414,46.541,101.107,46.54,101.114z M47.04,97.16l-0.148-0.021l-0.341,0.141l-0.074,0.127c-0.014,0.022-0.038,0.037-0.065,0.037h-0.408c-0.026,0-0.05-0.014-0.064-0.036l-0.062-0.1l-0.285-0.177l-0.1,0.026c-0.032,0.008-0.059-0.002-0.077-0.024l-0.281-0.336c-0.016-0.019-0.021-0.045-0.014-0.069l0.052-0.178l-0.051-0.373l-0.118-0.109c-0.02-0.018-0.028-0.044-0.022-0.07l0.082-0.395c0.006-0.03,0.031-0.054,0.061-0.059l0.105-0.017l0.25-0.305v-0.079c0-0.025,0.013-0.05,0.035-0.063l0.266-0.168c0.018-0.011,0.04-0.015,0.059-0.009l0.178,0.045l0.397,0.023l0.146-0.064c0.022-0.012,0.048-0.009,0.069,0.004l0.321,0.193c0.022,0.014,0.037,0.038,0.037,0.064v0.093l0.208,0.313l0.165,0.101c0.021,0.013,0.034,0.034,0.036,0.059l0.035,0.416c0.001,0.019-0.004,0.038-0.017,0.053l-0.07,0.086l-0.071,0.319l0.057,0.159c0.008,0.023,0.004,0.049-0.01,0.069l-0.209,0.293C47.095,97.152,47.066,97.166,47.04,97.16z M49.138,100.092c-0.031,0.027-0.753,0.684-1.262,0.775c-0.009,0.003-0.018,0.005-0.027,0.005c-0.015,0-0.033-0.006-0.046-0.015c-0.025-0.018-0.037-0.049-0.03-0.078c0.001-0.003,0.001-0.005,0.002-0.008c-0.029-0.146-0.283-0.858-0.409-1.21c-0.056-0.157-0.103-0.287-0.125-0.353l-0.008-0.023c-0.076-0.224-0.17-0.501-0.069-0.642c0.036-0.049,0.129-0.106,0.286-0.063c0.402,0.106,0.81,0.351,1.091,0.652c0.285,0.305,0.598,0.842,0.611,0.864C49.17,100.03,49.164,100.068,49.138,100.092z M50.075,99.014c-0.014,0.013-0.032,0.02-0.05,0.02c-0.034,0-0.049,0-1.646-1.222c-0.043-0.018-0.155-0.072-0.163-0.175c-0.009-0.116,0.122-0.187,0.165-0.21c0.046-0.024,0.094-0.053,0.142-0.081c0.204-0.12,0.435-0.257,0.726-0.257c0.062,0,0.125,0.006,0.187,0.019c0.425,0.083,1.216,0.319,1.25,0.329c0.04,0.012,0.062,0.054,0.051,0.093C50.723,97.579,50.393,98.726,50.075,99.014z" />
    <path fill="#B2B2B2" d="M47.176,96.781l-0.051-0.143c-0.004-0.014-0.005-0.028-0.002-0.042l0.079-0.357c0.002-0.011,0.008-0.021,0.015-0.03l0.062-0.076l-0.03-0.349l-0.146-0.089c-0.009-0.006-0.018-0.014-0.023-0.023l-0.229-0.346c-0.008-0.012-0.013-0.026-0.013-0.041v-0.073l-0.251-0.151l-0.127,0.057c-0.01,0.005-0.021,0.006-0.035,0.007l-0.43-0.027l-0.16-0.04l-0.204,0.129v0.064c0,0.018-0.006,0.034-0.017,0.048l-0.285,0.348c-0.012,0.014-0.028,0.023-0.046,0.026L45.2,95.684l-0.063,0.303l0.106,0.099c0.013,0.012,0.021,0.027,0.023,0.045l0.057,0.416c0.001,0.01,0,0.021-0.002,0.031l-0.045,0.154L45.501,97l0.085-0.022c0.02-0.006,0.042-0.003,0.059,0.009l0.327,0.203c0.01,0.006,0.018,0.015,0.024,0.024l0.049,0.079h0.323l0.065-0.111c0.008-0.014,0.021-0.025,0.036-0.031l0.383-0.158c0.012-0.005,0.027-0.01,0.039-0.005l0.123,0.018L47.176,96.781z M46.457,96.994c-0.015,0.015-0.034,0.022-0.054,0.022c-0.009,0-0.018-0.002-0.026-0.005l-0.924-0.346c-0.026-0.01-0.045-0.034-0.048-0.063l-0.062-0.586c-0.002-0.026,0.009-0.052,0.03-0.067c0.021-0.016,0.781-0.609,0.781-0.609c0.021-0.015,0.05-0.02,0.075-0.01l0.82,0.34c0.025,0.011,0.042,0.033,0.046,0.061l0.061,0.51c0.002,0.022-0.005,0.045-0.021,0.062L46.457,96.994z" />
    <path fill="#1D1D1B" d="M51.503,96.121c0-3.142-2.379-5.698-5.303-5.698c-2.924,0-5.304,2.557-5.304,5.698s2.379,5.698,5.304,5.698C49.125,101.819,51.503,99.262,51.503,96.121z M46.201,101.668c-2.842,0-5.153-2.488-5.153-5.548s2.312-5.548,5.153-5.548c2.841,0,5.152,2.488,5.152,5.548S49.042,101.668,46.201,101.668z" />
    <path fill="#232323" d="M44.955,93.757c0.226,0.036,0.298,0.024,0.299,0.025c-0.003-0.009-0.019-0.075-0.033-0.135c-0.007-0.031-0.015-0.065-0.023-0.104c-0.06-0.279-0.49-1.66-0.603-2.021c-0.336,0.183-1.007,0.57-1.207,0.781C43.546,92.549,44.566,93.696,44.955,93.757z" />
    <path fill="#1D1D1B" d="M44.931,93.906c0.118,0.019,0.211,0.032,0.278,0.032c0.048,0,0.117-0.007,0.158-0.058c0.049-0.063,0.03-0.144,0-0.267c-0.007-0.03-0.015-0.063-0.023-0.101c-0.07-0.328-0.61-2.049-0.633-2.122c-0.007-0.021-0.023-0.038-0.043-0.047c-0.021-0.008-0.044-0.007-0.063,0.003c-0.047,0.025-1.146,0.613-1.373,0.914c-0.018,0.038,0.001,0.072,0.008,0.086C43.343,92.542,44.455,93.831,44.931,93.906z M44.595,91.523c0.113,0.361,0.543,1.742,0.603,2.021c0.008,0.038,0.016,0.072,0.023,0.104c0.014,0.06,0.03,0.126,0.033,0.135c-0.001-0.001-0.073,0.011-0.299-0.025c-0.388-0.062-1.409-1.208-1.567-1.453C43.587,92.093,44.259,91.706,44.595,91.523z" />
    <path fill="#232323" d="M46.499,93.365c0.08,0.083,0.213,0.22,0.254,0.224c0.014-0.009,0.041-0.05,0.091-0.195c0.103-0.302,0.518-1.575,0.626-1.996c-0.203-0.048-0.805-0.178-1.399-0.19c0.011,0.072,0.024,0.179,0.042,0.336C46.173,92.068,46.301,93.162,46.499,93.365z" />
    <path fill="#1D1D1B" d="M45.963,91.559c0.098,0.846,0.212,1.689,0.428,1.91c0.171,0.177,0.265,0.27,0.362,0.27c0.12,0,0.174-0.129,0.232-0.297c0.115-0.334,0.576-1.751,0.648-2.085c0.008-0.039-0.016-0.078-0.054-0.088c-0.034-0.009-0.829-0.214-1.604-0.214c-0.042,0-0.075,0.034-0.075,0.075c0,0.015,0.005,0.029,0.012,0.041C45.923,91.217,45.944,91.391,45.963,91.559z M47.47,91.397c-0.108,0.421-0.523,1.694-0.626,1.996c-0.05,0.146-0.078,0.187-0.091,0.195c-0.041-0.004-0.174-0.141-0.254-0.224c-0.198-0.203-0.325-1.297-0.386-1.822c-0.018-0.157-0.031-0.264-0.042-0.336C46.665,91.219,47.267,91.349,47.47,91.397z" />
    <path fill="#232323" d="M48.14,94.442c0.066,0,0.155-0.063,0.181-0.085c1.02-0.822,1.381-1.109,1.519-1.209c-0.196-0.336-0.845-0.902-1.048-1.076c-0.626,0.892-0.791,1.803-0.747,2.207C48.063,94.442,48.121,94.442,48.14,94.442z" />
    <path fill="#1D1D1B" d="M48.14,94.592c0.133,0,0.264-0.109,0.277-0.12c0.583-0.47,1.47-1.181,1.552-1.235c0.012-0.006,0.023-0.016,0.031-0.027c0.014-0.021,0.015-0.049,0.004-0.071c-0.192-0.413-1.138-1.2-1.178-1.233c-0.016-0.014-0.037-0.022-0.057-0.017c-0.021,0.002-0.039,0.014-0.051,0.03c-0.744,1.02-0.863,2-0.822,2.376C47.924,94.553,48.061,94.592,48.14,94.592z M49.84,93.148c-0.138,0.1-0.5,0.387-1.519,1.209c-0.026,0.021-0.115,0.085-0.181,0.085c-0.019,0-0.077,0-0.095-0.163c-0.044-0.404,0.121-1.315,0.747-2.207C48.995,92.246,49.644,92.812,49.84,93.148z" />
    <path fill="#232323" d="M48.807,95.682c-0.055,0.08-0.073,0.149-0.054,0.206c0.026,0.076,0.12,0.125,0.165,0.142c0.11,0.001,0.929,0.007,1.466,0.007c0.226,0,0.341-0.001,0.399-0.002c0.033-0.469-0.169-1.293-0.235-1.549C49.455,94.877,49.031,95.355,48.807,95.682z" />
    <path fill="#1D1D1B" d="M48.683,95.598c-0.083,0.121-0.107,0.235-0.071,0.34c0.059,0.171,0.263,0.236,0.271,0.238c0.007,0.003,0.015,0.004,0.022,0.004c0,0,0.902,0.007,1.479,0.007c0.538,0,0.538,0,0.545-0.074c0-0.006,0-0.012,0-0.018c0.063-0.57-0.243-1.68-0.256-1.728c-0.005-0.02-0.019-0.036-0.038-0.046c-0.018-0.01-0.04-0.01-0.059-0.005C49.384,94.728,48.924,95.245,48.683,95.598z M50.383,96.037c-0.537,0-1.356-0.006-1.466-0.007c-0.044-0.017-0.139-0.065-0.165-0.142c-0.02-0.057-0.001-0.126,0.054-0.206c0.225-0.327,0.648-0.805,1.741-1.196c0.066,0.256,0.268,1.08,0.235,1.549C50.724,96.036,50.609,96.037,50.383,96.037z" />
    <path fill="#232323" d="M49.407,97.254c-0.053-0.01-0.106-0.016-0.158-0.016c-0.25,0-0.454,0.12-0.65,0.236c-0.05,0.029-0.099,0.059-0.147,0.085c-0.078,0.042-0.086,0.067-0.086,0.068c0.004,0.009,0.043,0.034,0.076,0.047c0.007,0.002,0.014,0.006,0.02,0.011c0.545,0.417,1.35,1.029,1.552,1.175c0.213-0.25,0.455-0.959,0.558-1.301C50.364,97.499,49.752,97.323,49.407,97.254z" />
    <path fill="#1D1D1B" d="M49.436,97.108c-0.063-0.013-0.125-0.019-0.187-0.019c-0.291,0-0.522,0.137-0.726,0.257c-0.048,0.028-0.096,0.057-0.142,0.081c-0.043,0.023-0.173,0.094-0.165,0.21c0.008,0.103,0.12,0.157,0.163,0.175c1.597,1.222,1.612,1.222,1.646,1.222c0.019,0,0.037-0.007,0.05-0.02c0.318-0.288,0.647-1.436,0.662-1.484c0.011-0.039-0.011-0.081-0.051-0.093C50.652,97.427,49.861,97.191,49.436,97.108z M48.462,97.686c-0.006-0.005-0.013-0.009-0.02-0.011c-0.033-0.013-0.072-0.038-0.076-0.047c0-0.001,0.009-0.026,0.086-0.068c0.048-0.026,0.097-0.056,0.147-0.085c0.196-0.116,0.4-0.236,0.65-0.236c0.052,0,0.105,0.006,0.158,0.016c0.345,0.068,0.957,0.244,1.165,0.306c-0.103,0.342-0.344,1.051-0.558,1.301C49.812,98.715,49.007,98.103,48.462,97.686z" />
    <path fill="#232323" d="M47.412,98.626c-0.03-0.008-0.055-0.012-0.076-0.012c-0.037,0-0.046,0.013-0.049,0.018c-0.056,0.077,0.039,0.355,0.089,0.505l0.008,0.023c0.022,0.066,0.068,0.194,0.124,0.352c0.269,0.753,0.371,1.058,0.405,1.193c0.394-0.106,0.922-0.548,1.079-0.684c-0.086-0.144-0.336-0.547-0.559-0.786C48.169,98.955,47.788,98.727,47.412,98.626z" />
    <path fill="#1D1D1B" d="M47.451,98.482c-0.157-0.044-0.25,0.014-0.286,0.063c-0.101,0.141-0.006,0.418,0.069,0.642l0.008,0.023c0.022,0.065,0.069,0.195,0.125,0.353c0.125,0.352,0.379,1.064,0.409,1.21c-0.001,0.003-0.001,0.005-0.002,0.008c-0.007,0.029,0.005,0.061,0.03,0.078c0.013,0.009,0.031,0.015,0.046,0.015c0.009,0,0.019-0.002,0.027-0.005c0.509-0.092,1.231-0.748,1.262-0.775c0.026-0.024,0.032-0.063,0.014-0.094c-0.013-0.022-0.326-0.56-0.611-0.864C48.261,98.833,47.853,98.588,47.451,98.482z M47.913,100.706c-0.034-0.136-0.136-0.44-0.405-1.193c-0.056-0.157-0.102-0.285-0.124-0.352l-0.008-0.023c-0.051-0.149-0.145-0.428-0.089-0.505c0.003-0.005,0.012-0.018,0.049-0.018c0.021,0,0.046,0.004,0.076,0.012c0.376,0.101,0.757,0.328,1.02,0.609c0.223,0.239,0.473,0.643,0.559,0.786C48.834,100.158,48.306,100.599,47.913,100.706z" />
    <path fill="#232323" d="M46.37,99.924c-0.045-0.488-0.083-0.574-0.453-1.02c-0.085-0.104-0.13-0.111-0.142-0.111c-0.089,0-0.159,0.358-0.193,0.531c-0.017,0.087-0.034,0.171-0.051,0.239c-0.061,0.231-0.254,0.744-0.382,1.083c-0.039,0.103-0.076,0.201-0.097,0.259c0.189,0.086,0.797,0.127,1.34,0.13C46.398,100.846,46.407,100.323,46.37,99.924z" />
    <path fill="#1D1D1B" d="M46.033,98.809c-0.092-0.111-0.176-0.165-0.258-0.165c-0.212,0-0.277,0.331-0.34,0.651c-0.017,0.084-0.032,0.164-0.05,0.23c-0.059,0.224-0.25,0.731-0.377,1.067c-0.133,0.353-0.133,0.353-0.108,0.389c0.006,0.01,0.015,0.018,0.025,0.022c0.23,0.168,1.223,0.182,1.525,0.182h0.015c0.04,0,0.073-0.032,0.074-0.072c0-0.007,0.026-0.7-0.021-1.203C46.471,99.39,46.421,99.277,46.033,98.809z M45.149,100.647c0.128-0.339,0.322-0.852,0.382-1.083c0.018-0.068,0.034-0.152,0.051-0.239c0.034-0.173,0.104-0.531,0.193-0.531c0.012,0,0.057,0.008,0.142,0.111c0.369,0.445,0.407,0.531,0.453,1.02c0.037,0.398,0.028,0.922,0.022,1.111c-0.543-0.003-1.151-0.044-1.34-0.13C45.073,100.848,45.11,100.75,45.149,100.647z" />
    <path fill="#232323" d="M44.469,98.128c-0.002-0.036-0.011-0.153-0.058-0.153c-0.072,0-0.21,0.118-0.281,0.199c-0.51,0.357-1.295,0.912-1.478,1.06c0.235,0.34,0.833,0.832,1.023,0.985c0.116-0.154,0.42-0.57,0.569-0.866C44.424,98.992,44.492,98.625,44.469,98.128z" />
    <path fill="#1D1D1B" d="M44.411,97.825c-0.165,0-0.357,0.208-0.38,0.238c-1.54,1.072-1.543,1.106-1.548,1.15c-0.002,0.016,0.002,0.032,0.01,0.047c0.239,0.412,1.114,1.096,1.151,1.125c0.013,0.01,0.029,0.016,0.046,0.016c0.003,0,0.006,0,0.009-0.001c0.02-0.002,0.038-0.013,0.05-0.028c0.018-0.023,0.438-0.57,0.629-0.952c0.193-0.385,0.265-0.773,0.24-1.299C44.606,97.863,44.483,97.825,44.411,97.825z M42.652,99.234c0.183-0.147,0.968-0.702,1.478-1.06c0.071-0.081,0.209-0.199,0.281-0.199c0.047,0,0.056,0.117,0.058,0.153c0.023,0.497-0.044,0.863-0.225,1.225c-0.149,0.296-0.453,0.712-0.569,0.866C43.485,100.066,42.888,99.574,42.652,99.234z" />
    <path fill="#232323" d="M43.793,96.549c-0.029-0.085-0.159-0.11-0.264-0.117c-0.656-0.043-1.63-0.126-1.907-0.15c-0.016,0.253-0.039,1.094,0.292,1.601c0.35-0.093,1.144-0.328,1.335-0.496C43.507,97.16,43.857,96.737,43.793,96.549z" />
    <path fill="#1D1D1B" d="M43.936,96.5c-0.045-0.131-0.178-0.204-0.396-0.219c-0.766-0.05-1.967-0.154-1.979-0.156c-0.036,0.001-0.077,0.027-0.081,0.067c-0.005,0.048-0.116,1.185,0.342,1.819c0.015,0.02,0.037,0.031,0.061,0.031c0.006,0,0.013-0.001,0.019-0.003c0.048-0.012,1.178-0.306,1.448-0.541C43.378,97.473,44.06,96.866,43.936,96.5z M41.915,97.882c-0.331-0.507-0.307-1.348-0.292-1.601c0.277,0.024,1.251,0.107,1.907,0.15c0.104,0.007,0.235,0.032,0.264,0.117c0.064,0.188-0.287,0.61-0.543,0.837C43.058,97.554,42.265,97.79,41.915,97.882z" />
    <path fill="#232323" d="M41.788,94.779c0.026,0.008,0.06,0.02,0.109,0.036c0.306,0.101,1.023,0.338,1.543,0.338c0.17,0,0.305-0.025,0.4-0.075c0.29-0.152,0.296-0.213,0.296-0.215c-0.004-0.016-0.058-0.052-0.086-0.07c-0.034-0.022-0.068-0.046-0.097-0.071c-0.035-0.031-0.171-0.136-0.343-0.269c-0.773-0.595-1.109-0.87-1.243-1.015C42.219,93.681,41.838,94.345,41.788,94.779z" />
    <path fill="#1D1D1B" d="M41.701,94.91c0.019,0.004,0.072,0.021,0.149,0.047c0.313,0.104,1.046,0.347,1.591,0.347c0.195,0,0.353-0.031,0.47-0.093c0.262-0.138,0.371-0.236,0.375-0.341c0.005-0.098-0.08-0.153-0.154-0.203c-0.027-0.018-0.056-0.036-0.079-0.057c-0.04-0.035-0.17-0.137-0.352-0.276c-0.362-0.278-1.211-0.933-1.264-1.029c0-0.033-0.022-0.063-0.054-0.072c-0.032-0.009-0.066,0.004-0.084,0.031c-0.026,0.041-0.641,1.001-0.665,1.569c-0.001,0.021,0.002,0.04,0.017,0.055S41.68,94.91,41.701,94.91z M43.953,94.721c0.028,0.025,0.063,0.049,0.097,0.071c0.029,0.019,0.083,0.055,0.086,0.07c0,0.002-0.006,0.063-0.296,0.215c-0.095,0.05-0.229,0.075-0.4,0.075c-0.52,0-1.237-0.237-1.543-0.338c-0.049-0.017-0.083-0.028-0.109-0.036c0.05-0.434,0.431-1.098,0.579-1.341c0.134,0.145,0.47,0.42,1.243,1.015C43.782,94.585,43.918,94.69,43.953,94.721z" />
    <path fill="#1D1D1B" d="M47.32,96.836c0.014-0.021,0.018-0.046,0.01-0.069l-0.057-0.159l0.071-0.319l0.07-0.086c0.012-0.015,0.018-0.034,0.017-0.053l-0.035-0.416c-0.002-0.024-0.015-0.046-0.036-0.059l-0.165-0.101l-0.208-0.313v-0.093c0-0.026-0.014-0.051-0.037-0.064l-0.321-0.193c-0.021-0.013-0.047-0.016-0.069-0.004l-0.146,0.064l-0.397-0.023l-0.178-0.045c-0.019-0.006-0.041-0.002-0.059,0.009l-0.266,0.168c-0.022,0.014-0.035,0.038-0.035,0.063v0.079l-0.25,0.305l-0.105,0.017c-0.03,0.005-0.055,0.028-0.061,0.059l-0.082,0.395c-0.005,0.026,0.003,0.053,0.022,0.07l0.118,0.109l0.051,0.373l-0.052,0.178c-0.007,0.024-0.002,0.051,0.014,0.069l0.281,0.336c0.019,0.022,0.045,0.032,0.077,0.024l0.1-0.026l0.285,0.177l0.062,0.1c0.014,0.022,0.038,0.036,0.064,0.036h0.408c0.027,0,0.051-0.015,0.065-0.037l0.074-0.127l0.341-0.141l0.148,0.021c0.026,0.006,0.055-0.008,0.071-0.03L47.32,96.836z M47.016,97.005l-0.123-0.018c-0.012-0.005-0.027,0-0.039,0.005l-0.383,0.158c-0.015,0.006-0.028,0.018-0.036,0.031l-0.065,0.111h-0.323l-0.049-0.079c-0.006-0.01-0.015-0.019-0.024-0.024l-0.327-0.203c-0.018-0.012-0.039-0.015-0.059-0.009L45.501,97l-0.225-0.269l0.045-0.154c0.003-0.011,0.004-0.021,0.002-0.031l-0.057-0.416c-0.002-0.018-0.011-0.033-0.023-0.045l-0.106-0.099l0.063-0.303l0.082-0.013c0.018-0.003,0.034-0.013,0.046-0.026l0.285-0.348c0.011-0.014,0.017-0.03,0.017-0.048v-0.064l0.204-0.129l0.16,0.04l0.43,0.027c0.014-0.001,0.025-0.002,0.035-0.007l0.127-0.057l0.251,0.151v0.073c0,0.015,0.004,0.029,0.013,0.041l0.229,0.346c0.006,0.01,0.014,0.018,0.023,0.023l0.146,0.089l0.03,0.349l-0.062,0.076c-0.007,0.009-0.013,0.02-0.015,0.03l-0.079,0.357c-0.003,0.014-0.002,0.028,0.002,0.042l0.051,0.143L47.016,97.005z" />
    <path fill="#DADADA" d="M47.002,96.223l-0.051-0.431l-0.739-0.307c-0.129,0.101-0.586,0.457-0.715,0.557l0.052,0.499l0.834,0.313L47.002,96.223z M46.295,96.567c-0.014,0-0.027-0.004-0.04-0.012l-0.383-0.236c-0.019-0.011-0.031-0.03-0.035-0.052s0.003-0.044,0.018-0.061l0.298-0.346c0.022-0.026,0.06-0.032,0.09-0.019l0.391,0.195c0.02,0.011,0.035,0.029,0.04,0.051c0.005,0.022,0,0.045-0.014,0.063l-0.306,0.387C46.339,96.557,46.317,96.567,46.295,96.567z" />
    <path fill="#1D1D1B" d="M47.134,96.302c0.016-0.017,0.023-0.039,0.021-0.062l-0.061-0.51c-0.003-0.027-0.021-0.05-0.046-0.061l-0.82-0.34c-0.024-0.01-0.054-0.005-0.075,0.01c0,0-0.761,0.594-0.781,0.609c-0.021,0.016-0.032,0.041-0.03,0.067l0.062,0.586c0.003,0.028,0.022,0.053,0.048,0.063l0.924,0.346c0.009,0.003,0.018,0.005,0.026,0.005c0.02,0,0.039-0.008,0.054-0.022L47.134,96.302z M45.497,96.042c0.129-0.1,0.585-0.456,0.715-0.557l0.739,0.307l0.051,0.431l-0.619,0.631l-0.834-0.313L45.497,96.042z" />
    <path fill="#1D1D1B" d="M46.674,96.088c-0.005-0.021-0.02-0.04-0.04-0.051l-0.391-0.195c-0.031-0.014-0.068-0.008-0.09,0.019l-0.298,0.346c-0.015,0.017-0.021,0.039-0.018,0.061s0.016,0.041,0.035,0.052l0.383,0.236c0.012,0.008,0.026,0.012,0.04,0.012c0.022,0,0.044-0.01,0.059-0.028l0.306-0.387C46.674,96.133,46.679,96.111,46.674,96.088z" />
    <path fill="#706F6F" d="M137.896,61.676c-0.053,0-0.095,0.042-0.095,0.095v1.654c0,0.053,0.042,0.095,0.095,0.095h0.588c0.053,0,0.095-0.042,0.095-0.095v-1.654c0-0.053-0.042-0.095-0.095-0.095H137.896z" />
    <path fill="#1D1D1B" d="M137.896,61.526c-0.047,0-0.083,0.027-0.12,0.05c-0.041,0.025-0.065,0.057-0.086,0.101c-0.012,0.026-0.03,0.048-0.032,0.078c0,0.007-0.007,0.01-0.007,0.017v1.654c0,0.135,0.11,0.245,0.245,0.245h0.317h0.271c0.078,0,0.141-0.043,0.186-0.101c0.031-0.042,0.06-0.088,0.06-0.145v-1.654c0-0.135-0.11-0.245-0.245-0.245h-0.038H137.896z M138.579,61.771v1.654c0,0.053-0.042,0.095-0.095,0.095h-0.588c-0.053,0-0.095-0.042-0.095-0.095v-1.654c0-0.053,0.042-0.095,0.095-0.095h0.588C138.537,61.676,138.579,61.718,138.579,61.771z" />
    <path fill="#91160F" d="M138.306,71.69c0-0.015,0.022-1.825,0-2.526c-0.021-0.641,0.528-0.82,0.721-0.864c-0.073-1.307-0.147-2.63-0.147-2.63c0.001-0.049-0.009-0.12-0.029-0.142c-0.006,0.001-1.95,1.172-1.95,3.112v9.191c-0.001,0.013-0.041,0.346,0.109,0.518c0.061,0.067,0.143,0.101,0.251,0.101h0.021h1.186c0.256-0.033,0.556-0.113,0.598-0.182c0.065-0.104,0.087-0.268,0.09-0.321c0.001-0.043,0.027-3.179,0.024-5.381C138.273,72.421,138.306,71.698,138.306,71.69z" />
    <path fill="#1D1D1B" d="M139.313,70.805c0.001,0.03,0.002,0.061,0.002,0.09C139.315,70.865,139.314,70.833,139.313,70.805z" />
    <path fill="#1D1D1B" d="M138.812,65.379c-0.009,0.001-0.017,0.004-0.024,0.009c-0.001,0-0.018,0.011-0.021,0.014c-0.031,0.019-0.158,0.101-0.348,0.249c-0.253,0.197-0.592,0.509-0.904,0.914c-0.411,0.534-0.766,1.229-0.766,2.075v0.035l0.001,9.146c-0.001,0.01-0.013,0.151,0.015,0.311c0.019,0.109,0.052,0.225,0.132,0.315c0.089,0.101,0.211,0.152,0.363,0.152h1.212c0.003,0,0.006,0,0.01-0.001c0.002,0,0.007-0.001,0.009-0.001c0.045-0.006,0.118-0.019,0.201-0.035c0.142-0.027,0.298-0.073,0.405-0.14c0.037-0.023,0.077-0.047,0.095-0.075c0.008-0.013,0.012-0.026,0.019-0.04c0.079-0.154,0.094-0.345,0.095-0.356c0-0.051,0.034-4.091,0.021-6.222c0,0.459-0.011,0.788-0.038,0.82c-0.015,0.017-0.035,0.026-0.058,0.026c-0.003,0-0.007,0-0.01-0.001c-0.016-0.002-0.026-0.008-0.041-0.01c0.003,2.202-0.023,5.338-0.024,5.381c-0.003,0.054-0.024,0.217-0.09,0.321c-0.042,0.068-0.342,0.148-0.598,0.182h-1.186h-0.021c-0.108,0-0.19-0.033-0.251-0.101c-0.15-0.172-0.11-0.505-0.109-0.518V68.64c0-1.94,1.944-3.111,1.95-3.112c0.021,0.021,0.03,0.093,0.029,0.142c0,0,0.074,1.323,0.147,2.63c0.039-0.009,0.068-0.015,0.07-0.015c0.035-0.014,0.077,0.022,0.083,0.063c0,0.002,0.001,0.005,0.001,0.007c-0.074-1.324-0.151-2.687-0.151-2.687c0.001-0.027,0.001-0.169-0.072-0.244c-0.013-0.013-0.027-0.02-0.042-0.027C138.885,65.378,138.852,65.369,138.812,65.379z" />
    <path fill="#C6C6C6" d="M139.043,68.447c-0.175,0.042-0.604,0.197-0.587,0.713c0.022,0.704,0,2.518,0,2.536c-0.002,0.028-0.025,0.584,0.704,0.719C139.173,71.947,139.172,69.375,139.043,68.447z" />
    <path fill="#1D1D1B" d="M139.097,68.285c-0.002,0-0.031,0.006-0.07,0.015c-0.192,0.044-0.741,0.224-0.721,0.864c0.022,0.701,0,2.512,0,2.526c0,0.008-0.033,0.731,0.873,0.876c0.015,0.002,0.025,0.008,0.041,0.01c0.003,0.001,0.007,0.001,0.01,0.001c0.022,0,0.043-0.01,0.058-0.026c0.027-0.032,0.038-0.361,0.038-0.82c0-0.248-0.004-0.533-0.011-0.835c0-0.029-0.001-0.06-0.002-0.09c-0.022-0.986-0.074-2.09-0.132-2.451c0-0.002-0.001-0.005-0.001-0.007C139.174,68.307,139.132,68.271,139.097,68.285z M139.161,72.415c-0.729-0.135-0.706-0.69-0.704-0.719c0-0.019,0.022-1.832,0-2.536c-0.017-0.516,0.412-0.671,0.587-0.713C139.172,69.375,139.173,71.947,139.161,72.415z" />
    <path fill="#1D1D1B" d="M54.126,73.128c0.05,0,0.092-0.001,0.124-0.002l-0.33-6.021h-1.11c-0.611,0-1.358,1.48-1.443,3.463C51.368,72.944,53.479,73.128,54.126,73.128z" />
    <path fill="#1D1D1B" d="M54.335,73.271c0.04-0.003,0.07-0.038,0.068-0.078l-0.338-6.166c-0.002-0.04-0.035-0.071-0.075-0.071H52.81c-0.767,0-1.511,1.686-1.593,3.61c0,2.517,2.227,2.713,2.909,2.713C54.257,73.279,54.335,73.271,54.335,73.271z M52.81,67.106h1.11l0.33,6.021c-0.032,0.001-0.073,0.002-0.124,0.002c-0.647,0-2.758-0.185-2.759-2.56C51.452,68.586,52.199,67.106,52.81,67.106z" />
  </g>

</g>
</g>

</svg>